<?xml version="1.0" encoding="UTF-8"?>
<svg xmlns="http://www.w3.org/2000/svg" xmlns:xlink="http://www.w3.org/1999/xlink" width="50pt" height="50pt" viewBox="0 0 50 50" version="1.1">
<g id="surface1">
<rect x="0" y="0" width="50" height="50" style="fill:rgb(100%,100%,100%);fill-opacity:1;stroke:none;"/>
<path style="fill:none;stroke-width:0.1125;stroke-linecap:butt;stroke-linejoin:miter;stroke:rgb(0%,0%,0%);stroke-opacity:1;stroke-miterlimit:10;" d="M 47.5 25 C 47.5 37.425781 37.425781 47.5 25 47.5 C 12.574219 47.5 2.5 37.425781 2.5 25 C 2.5 12.574219 12.574219 2.5 25 2.5 C 37.425781 2.5 47.5 12.574219 47.5 25 "/>
<path style=" stroke:none;fill-rule:nonzero;fill:rgb(0%,0%,0%);fill-opacity:1;" d="M 25.167969 25 C 25.167969 25.226562 24.832031 25.226562 24.832031 25 C 24.832031 24.773438 25.167969 24.773438 25.167969 25 "/>
<path style=" stroke:none;fill-rule:nonzero;fill:rgb(0%,0%,0%);fill-opacity:1;" d="M 32.996094 25.71875 C 32.996094 25.945312 32.660156 25.945312 32.660156 25.71875 C 32.660156 25.496094 32.996094 25.496094 32.996094 25.71875 "/>
<path style=" stroke:none;fill-rule:nonzero;fill:rgb(0%,0%,0%);fill-opacity:1;" d="M 42.167969 13.742188 C 42.167969 13.964844 41.832031 13.964844 41.832031 13.742188 C 41.832031 13.515625 42.167969 13.515625 42.167969 13.742188 "/>
<path style="fill:none;stroke-width:0.1125;stroke-linecap:butt;stroke-linejoin:miter;stroke:rgb(0%,0%,0%);stroke-opacity:1;stroke-miterlimit:10;" d="M 32.828125 25.71875 C 34.800781 21.003906 37.960938 16.875 42 13.742188 "/>
<path style=" stroke:none;fill-rule:nonzero;fill:rgb(0%,0%,0%);fill-opacity:1;" d="M 25.839844 3.324219 C 25.839844 3.550781 25.5 3.550781 25.5 3.324219 C 25.5 3.097656 25.839844 3.097656 25.839844 3.324219 "/>
<path style=" stroke:none;fill-rule:nonzero;fill:rgb(0%,0%,0%);fill-opacity:1;" d="M 13.027344 41.863281 C 13.027344 42.089844 12.6875 42.089844 12.6875 41.863281 C 12.6875 41.636719 13.027344 41.636719 13.027344 41.863281 "/>
<path style="fill:none;stroke-width:0.1125;stroke-linecap:butt;stroke-linejoin:miter;stroke:rgb(0%,0%,0%);stroke-opacity:1;stroke-miterlimit:10;" d="M 25.671875 3.324219 C 25.089844 17.117188 20.648438 30.46875 12.859375 41.863281 "/>
<path style=" stroke:none;fill-rule:nonzero;fill:rgb(0%,0%,0%);fill-opacity:1;" d="M 12.605469 16.683594 C 12.605469 16.90625 12.269531 16.90625 12.269531 16.683594 C 12.269531 16.457031 12.605469 16.457031 12.605469 16.683594 "/>
<path style=" stroke:none;fill-rule:nonzero;fill:rgb(0%,0%,0%);fill-opacity:1;" d="M 23.722656 33.230469 C 23.722656 33.453125 23.386719 33.453125 23.386719 33.230469 C 23.386719 33.003906 23.722656 33.003906 23.722656 33.230469 "/>
<path style="fill:none;stroke-width:0.1125;stroke-linecap:butt;stroke-linejoin:miter;stroke:rgb(0%,0%,0%);stroke-opacity:1;stroke-miterlimit:10;" d="M 12.4375 16.683594 C 17.234375 21.378906 21.019531 27.011719 23.554688 33.230469 "/>
<path style=" stroke:none;fill-rule:nonzero;fill:rgb(0%,0%,0%);fill-opacity:1;" d="M 38.847656 39.816406 C 38.847656 40.042969 38.511719 40.042969 38.511719 39.816406 C 38.511719 39.59375 38.847656 39.59375 38.847656 39.816406 "/>
<path style=" stroke:none;fill-rule:nonzero;fill:rgb(0%,0%,0%);fill-opacity:1;" d="M 25.753906 18.457031 C 25.753906 18.679688 25.414062 18.679688 25.414062 18.457031 C 25.414062 18.230469 25.753906 18.230469 25.753906 18.457031 "/>
<path style="fill:none;stroke-width:0.1125;stroke-linecap:butt;stroke-linejoin:miter;stroke:rgb(0%,0%,0%);stroke-opacity:1;stroke-miterlimit:10;" d="M 38.679688 39.816406 C 33.175781 33.460938 28.753906 26.246094 25.585938 18.457031 "/>
<path style=" stroke:none;fill-rule:nonzero;fill:rgb(0%,0%,0%);fill-opacity:1;" d="M 23.714844 47.144531 C 23.714844 47.371094 23.378906 47.371094 23.378906 47.144531 C 23.378906 46.917969 23.714844 46.917969 23.714844 47.144531 "/>
<path style=" stroke:none;fill-rule:nonzero;fill:rgb(0%,0%,0%);fill-opacity:1;" d="M 21.019531 4.011719 C 21.019531 4.238281 20.679688 4.238281 20.679688 4.011719 C 20.679688 3.789062 21.019531 3.789062 21.019531 4.011719 "/>
<path style="fill:none;stroke-width:0.1125;stroke-linecap:butt;stroke-linejoin:miter;stroke:rgb(0%,0%,0%);stroke-opacity:1;stroke-miterlimit:10;" d="M 20.847656 4.011719 C 23.5625 18.21875 24.46875 32.710938 23.546875 47.144531 "/>
<path style=" stroke:none;fill-rule:nonzero;fill:rgb(0%,0%,0%);fill-opacity:1;" d="M 16.46875 16.660156 C 16.46875 16.882812 16.132812 16.882812 16.132812 16.660156 C 16.132812 16.433594 16.46875 16.433594 16.46875 16.660156 "/>
<path style=" stroke:none;fill-rule:nonzero;fill:rgb(0%,0%,0%);fill-opacity:1;" d="M 32.320312 29.226562 C 32.320312 29.453125 31.980469 29.453125 31.980469 29.226562 C 31.980469 29.003906 32.320312 29.003906 32.320312 29.226562 "/>
<path style="fill:none;stroke-width:0.1125;stroke-linecap:butt;stroke-linejoin:miter;stroke:rgb(0%,0%,0%);stroke-opacity:1;stroke-miterlimit:10;" d="M 32.152344 29.226562 C 26.710938 25.238281 21.421875 21.046875 16.300781 16.660156 "/>
<path style=" stroke:none;fill-rule:nonzero;fill:rgb(0%,0%,0%);fill-opacity:1;" d="M 45.039062 27 C 45.039062 27.226562 44.703125 27.226562 44.703125 27 C 44.703125 26.773438 45.039062 26.773438 45.039062 27 "/>
<path style=" stroke:none;fill-rule:nonzero;fill:rgb(0%,0%,0%);fill-opacity:1;" d="M 19.417969 38.171875 C 19.417969 38.398438 19.082031 38.398438 19.082031 38.171875 C 19.082031 37.945312 19.417969 37.945312 19.417969 38.171875 "/>
<path style="fill:none;stroke-width:0.1125;stroke-linecap:butt;stroke-linejoin:miter;stroke:rgb(0%,0%,0%);stroke-opacity:1;stroke-miterlimit:10;" d="M 19.25 38.171875 C 25.75 30.886719 35.109375 26.804688 44.871094 27 "/>
<path style=" stroke:none;fill-rule:nonzero;fill:rgb(0%,0%,0%);fill-opacity:1;" d="M 37.621094 8.953125 C 37.621094 9.175781 37.285156 9.175781 37.285156 8.953125 C 37.285156 8.726562 37.621094 8.726562 37.621094 8.953125 "/>
<path style=" stroke:none;fill-rule:nonzero;fill:rgb(0%,0%,0%);fill-opacity:1;" d="M 44.230469 20.285156 C 44.230469 20.507812 43.894531 20.507812 43.894531 20.285156 C 43.894531 20.058594 44.230469 20.058594 44.230469 20.285156 "/>
<path style="fill:none;stroke-width:0.1125;stroke-linecap:butt;stroke-linejoin:miter;stroke:rgb(0%,0%,0%);stroke-opacity:1;stroke-miterlimit:10;" d="M 44.0625 20.285156 C 41.523438 19.9375 39.285156 18.441406 37.996094 16.230469 C 36.703125 14.015625 36.503906 11.332031 37.453125 8.953125 "/>
<path style=" stroke:none;fill-rule:nonzero;fill:rgb(0%,0%,0%);fill-opacity:1;" d="M 14.570312 23.386719 C 14.570312 23.613281 14.234375 23.613281 14.234375 23.386719 C 14.234375 23.164062 14.570312 23.164062 14.570312 23.386719 "/>
<path style=" stroke:none;fill-rule:nonzero;fill:rgb(0%,0%,0%);fill-opacity:1;" d="M 40.695312 25.082031 C 40.695312 25.304688 40.355469 25.304688 40.355469 25.082031 C 40.355469 24.855469 40.695312 24.855469 40.695312 25.082031 "/>
<path style="fill:none;stroke-width:0.1125;stroke-linecap:butt;stroke-linejoin:miter;stroke:rgb(0%,0%,0%);stroke-opacity:1;stroke-miterlimit:10;" d="M 40.523438 25.082031 C 31.800781 24.832031 23.085938 24.265625 14.402344 23.386719 "/>
<path style=" stroke:none;fill-rule:nonzero;fill:rgb(0%,0%,0%);fill-opacity:1;" d="M 26.765625 19.128906 C 26.765625 19.355469 26.429688 19.355469 26.429688 19.128906 C 26.429688 18.90625 26.765625 18.90625 26.765625 19.128906 "/>
<path style=" stroke:none;fill-rule:nonzero;fill:rgb(0%,0%,0%);fill-opacity:1;" d="M 21.101562 20.96875 C 21.101562 21.191406 20.761719 21.191406 20.761719 20.96875 C 20.761719 20.742188 21.101562 20.742188 21.101562 20.96875 "/>
<path style="fill:none;stroke-width:0.1125;stroke-linecap:butt;stroke-linejoin:miter;stroke:rgb(0%,0%,0%);stroke-opacity:1;stroke-miterlimit:10;" d="M 26.597656 19.128906 C 24.75 19.859375 22.855469 20.472656 20.929688 20.96875 "/>
<path style=" stroke:none;fill-rule:nonzero;fill:rgb(0%,0%,0%);fill-opacity:1;" d="M 17.878906 46.054688 C 17.878906 46.28125 17.542969 46.28125 17.542969 46.054688 C 17.542969 45.832031 17.878906 45.832031 17.878906 46.054688 "/>
<path style=" stroke:none;fill-rule:nonzero;fill:rgb(0%,0%,0%);fill-opacity:1;" d="M 5.980469 34.617188 C 5.980469 34.84375 5.644531 34.84375 5.644531 34.617188 C 5.644531 34.394531 5.980469 34.394531 5.980469 34.617188 "/>
<path style="fill:none;stroke-width:0.1125;stroke-linecap:butt;stroke-linejoin:miter;stroke:rgb(0%,0%,0%);stroke-opacity:1;stroke-miterlimit:10;" d="M 5.8125 34.617188 C 9.109375 33.417969 12.796875 34.199219 15.328125 36.628906 C 17.855469 39.058594 18.78125 42.714844 17.710938 46.054688 "/>
<path style=" stroke:none;fill-rule:nonzero;fill:rgb(0%,0%,0%);fill-opacity:1;" d="M 29.164062 12.640625 C 29.164062 12.863281 28.828125 12.863281 28.828125 12.640625 C 28.828125 12.414062 29.164062 12.414062 29.164062 12.640625 "/>
<path style=" stroke:none;fill-rule:nonzero;fill:rgb(0%,0%,0%);fill-opacity:1;" d="M 40.507812 25.542969 C 40.507812 25.769531 40.167969 25.769531 40.167969 25.542969 C 40.167969 25.320312 40.507812 25.320312 40.507812 25.542969 "/>
<path style="fill:none;stroke-width:0.1125;stroke-linecap:butt;stroke-linejoin:miter;stroke:rgb(0%,0%,0%);stroke-opacity:1;stroke-miterlimit:10;" d="M 40.335938 25.542969 C 34.960938 22.957031 30.867188 18.300781 28.996094 12.640625 "/>
<path style=" stroke:none;fill-rule:nonzero;fill:rgb(0%,0%,0%);fill-opacity:1;" d="M 9.679688 26.171875 C 9.679688 26.398438 9.34375 26.398438 9.34375 26.171875 C 9.34375 25.949219 9.679688 25.949219 9.679688 26.171875 "/>
<path style=" stroke:none;fill-rule:nonzero;fill:rgb(0%,0%,0%);fill-opacity:1;" d="M 11.554688 24.589844 C 11.554688 24.816406 11.214844 24.816406 11.214844 24.589844 C 11.214844 24.363281 11.554688 24.363281 11.554688 24.589844 "/>
<path style="fill:none;stroke-width:0.1125;stroke-linecap:butt;stroke-linejoin:miter;stroke:rgb(0%,0%,0%);stroke-opacity:1;stroke-miterlimit:10;" d="M 11.386719 24.589844 C 10.800781 25.164062 10.175781 25.691406 9.511719 26.171875 "/>
<path style=" stroke:none;fill-rule:nonzero;fill:rgb(0%,0%,0%);fill-opacity:1;" d="M 10.46875 24.753906 C 10.46875 24.976562 10.132812 24.976562 10.132812 24.753906 C 10.132812 24.527344 10.46875 24.527344 10.46875 24.753906 "/>
<path style=" stroke:none;fill-rule:nonzero;fill:rgb(0%,0%,0%);fill-opacity:1;" d="M 25.738281 41.988281 C 25.738281 42.210938 25.402344 42.210938 25.402344 41.988281 C 25.402344 41.761719 25.738281 41.761719 25.738281 41.988281 "/>
<path style="fill:none;stroke-width:0.1125;stroke-linecap:butt;stroke-linejoin:miter;stroke:rgb(0%,0%,0%);stroke-opacity:1;stroke-miterlimit:10;" d="M 10.300781 24.753906 C 17.746094 27.878906 23.363281 34.21875 25.570312 41.988281 "/>
<path style=" stroke:none;fill-rule:nonzero;fill:rgb(0%,0%,0%);fill-opacity:1;" d="M 28.625 29.523438 C 28.625 29.75 28.289062 29.75 28.289062 29.523438 C 28.289062 29.300781 28.625 29.300781 28.625 29.523438 "/>
<path style=" stroke:none;fill-rule:nonzero;fill:rgb(0%,0%,0%);fill-opacity:1;" d="M 33.890625 39.007812 C 33.890625 39.230469 33.550781 39.230469 33.550781 39.007812 C 33.550781 38.78125 33.890625 38.78125 33.890625 39.007812 "/>
<path style="fill:none;stroke-width:0.1125;stroke-linecap:butt;stroke-linejoin:miter;stroke:rgb(0%,0%,0%);stroke-opacity:1;stroke-miterlimit:10;" d="M 33.722656 39.007812 C 31.898438 35.882812 30.140625 32.722656 28.457031 29.523438 "/>
<path style=" stroke:none;fill-rule:nonzero;fill:rgb(0%,0%,0%);fill-opacity:1;" d="M 11.378906 8.03125 C 11.378906 8.257812 11.042969 8.257812 11.042969 8.03125 C 11.042969 7.808594 11.378906 7.808594 11.378906 8.03125 "/>
<path style=" stroke:none;fill-rule:nonzero;fill:rgb(0%,0%,0%);fill-opacity:1;" d="M 40.121094 16.972656 C 40.121094 17.195312 39.785156 17.195312 39.785156 16.972656 C 39.785156 16.746094 40.121094 16.746094 40.121094 16.972656 "/>
<path style="fill:none;stroke-width:0.1125;stroke-linecap:butt;stroke-linejoin:miter;stroke:rgb(0%,0%,0%);stroke-opacity:1;stroke-miterlimit:10;" d="M 39.953125 16.972656 C 29.449219 19.792969 18.261719 16.3125 11.210938 8.03125 "/>
<path style=" stroke:none;fill-rule:nonzero;fill:rgb(0%,0%,0%);fill-opacity:1;" d="M 33.820312 27.3125 C 33.820312 27.535156 33.480469 27.535156 33.480469 27.3125 C 33.480469 27.085938 33.820312 27.085938 33.820312 27.3125 "/>
<path style=" stroke:none;fill-rule:nonzero;fill:rgb(0%,0%,0%);fill-opacity:1;" d="M 22.082031 33.625 C 22.082031 33.847656 21.742188 33.847656 21.742188 33.625 C 21.742188 33.398438 22.082031 33.398438 22.082031 33.625 "/>
<path style="fill:none;stroke-width:0.1125;stroke-linecap:butt;stroke-linejoin:miter;stroke:rgb(0%,0%,0%);stroke-opacity:1;stroke-miterlimit:10;" d="M 21.914062 33.625 C 25.46875 30.914062 29.429688 28.78125 33.652344 27.3125 "/>
<path style=" stroke:none;fill-rule:nonzero;fill:rgb(0%,0%,0%);fill-opacity:1;" d="M 45.082031 23.417969 C 45.082031 23.644531 44.746094 23.644531 44.746094 23.417969 C 44.746094 23.195312 45.082031 23.195312 45.082031 23.417969 "/>
<path style=" stroke:none;fill-rule:nonzero;fill:rgb(0%,0%,0%);fill-opacity:1;" d="M 5.578125 31.792969 C 5.578125 32.019531 5.238281 32.019531 5.238281 31.792969 C 5.238281 31.570312 5.578125 31.570312 5.578125 31.792969 "/>
<path style="fill:none;stroke-width:0.1125;stroke-linecap:butt;stroke-linejoin:miter;stroke:rgb(0%,0%,0%);stroke-opacity:1;stroke-miterlimit:10;" d="M 5.40625 31.792969 C 18.214844 27.503906 31.46875 24.691406 44.914062 23.417969 "/>
<path style=" stroke:none;fill-rule:nonzero;fill:rgb(0%,0%,0%);fill-opacity:1;" d="M 24.710938 4.75 C 24.710938 4.976562 24.375 4.976562 24.375 4.75 C 24.375 4.527344 24.710938 4.527344 24.710938 4.75 "/>
<path style=" stroke:none;fill-rule:nonzero;fill:rgb(0%,0%,0%);fill-opacity:1;" d="M 37.617188 32.183594 C 37.617188 32.410156 37.28125 32.410156 37.28125 32.183594 C 37.28125 31.960938 37.617188 31.960938 37.617188 32.183594 "/>
<path style="fill:none;stroke-width:0.1125;stroke-linecap:butt;stroke-linejoin:miter;stroke:rgb(0%,0%,0%);stroke-opacity:1;stroke-miterlimit:10;" d="M 37.449219 32.183594 C 29.945312 24.921875 25.355469 15.164062 24.542969 4.75 "/>
<path style=" stroke:none;fill-rule:nonzero;fill:rgb(0%,0%,0%);fill-opacity:1;" d="M 21.25 25.003906 C 21.25 25.230469 20.910156 25.230469 20.910156 25.003906 C 20.910156 24.78125 21.25 24.78125 21.25 25.003906 "/>
<path style=" stroke:none;fill-rule:nonzero;fill:rgb(0%,0%,0%);fill-opacity:1;" d="M 40.933594 10.320312 C 40.933594 10.546875 40.597656 10.546875 40.597656 10.320312 C 40.597656 10.097656 40.933594 10.097656 40.933594 10.320312 "/>
<path style="fill:none;stroke-width:0.1125;stroke-linecap:butt;stroke-linejoin:miter;stroke:rgb(0%,0%,0%);stroke-opacity:1;stroke-miterlimit:10;" d="M 40.765625 10.320312 C 34.714844 15.867188 28.117188 20.785156 21.078125 25.003906 "/>
<path style=" stroke:none;fill-rule:nonzero;fill:rgb(0%,0%,0%);fill-opacity:1;" d="M 13.304688 41.589844 C 13.304688 41.8125 12.964844 41.8125 12.964844 41.589844 C 12.964844 41.363281 13.304688 41.363281 13.304688 41.589844 "/>
<path style=" stroke:none;fill-rule:nonzero;fill:rgb(0%,0%,0%);fill-opacity:1;" d="M 43.085938 14.457031 C 43.085938 14.683594 42.746094 14.683594 42.746094 14.457031 C 42.746094 14.234375 43.085938 14.234375 43.085938 14.457031 "/>
<path style="fill:none;stroke-width:0.1125;stroke-linecap:butt;stroke-linejoin:miter;stroke:rgb(0%,0%,0%);stroke-opacity:1;stroke-miterlimit:10;" d="M 13.136719 41.589844 C 21.246094 30.734375 31.351562 21.523438 42.914062 14.457031 "/>
<path style=" stroke:none;fill-rule:nonzero;fill:rgb(0%,0%,0%);fill-opacity:1;" d="M 21.980469 28.605469 C 21.980469 28.832031 21.640625 28.832031 21.640625 28.605469 C 21.640625 28.378906 21.980469 28.378906 21.980469 28.605469 "/>
<path style=" stroke:none;fill-rule:nonzero;fill:rgb(0%,0%,0%);fill-opacity:1;" d="M 31.511719 13.800781 C 31.511719 14.027344 31.175781 14.027344 31.175781 13.800781 C 31.175781 13.574219 31.511719 13.574219 31.511719 13.800781 "/>
<path style="fill:none;stroke-width:0.1125;stroke-linecap:butt;stroke-linejoin:miter;stroke:rgb(0%,0%,0%);stroke-opacity:1;stroke-miterlimit:10;" d="M 31.34375 13.800781 C 28.277344 18.808594 25.101562 23.742188 21.8125 28.605469 "/>
<path style=" stroke:none;fill-rule:nonzero;fill:rgb(0%,0%,0%);fill-opacity:1;" d="M 10.125 36.152344 C 10.125 36.375 9.789062 36.375 9.789062 36.152344 C 9.789062 35.925781 10.125 35.925781 10.125 36.152344 "/>
<path style=" stroke:none;fill-rule:nonzero;fill:rgb(0%,0%,0%);fill-opacity:1;" d="M 34.679688 26.820312 C 34.679688 27.046875 34.34375 27.046875 34.34375 26.820312 C 34.34375 26.597656 34.679688 26.597656 34.679688 26.820312 "/>
<path style="fill:none;stroke-width:0.1125;stroke-linecap:butt;stroke-linejoin:miter;stroke:rgb(0%,0%,0%);stroke-opacity:1;stroke-miterlimit:10;" d="M 9.957031 36.152344 C 17.398438 31.355469 25.765625 28.179688 34.511719 26.820312 "/>
<path style=" stroke:none;fill-rule:nonzero;fill:rgb(0%,0%,0%);fill-opacity:1;" d="M 4.644531 23.4375 C 4.644531 23.664062 4.308594 23.664062 4.308594 23.4375 C 4.308594 23.214844 4.644531 23.214844 4.644531 23.4375 "/>
<path style=" stroke:none;fill-rule:nonzero;fill:rgb(0%,0%,0%);fill-opacity:1;" d="M 18.089844 43.933594 C 18.089844 44.160156 17.75 44.160156 17.75 43.933594 C 17.75 43.707031 18.089844 43.707031 18.089844 43.933594 "/>
<path style="fill:none;stroke-width:0.1125;stroke-linecap:butt;stroke-linejoin:miter;stroke:rgb(0%,0%,0%);stroke-opacity:1;stroke-miterlimit:10;" d="M 4.476562 23.4375 C 9.003906 24.324219 12.980469 27 15.511719 30.855469 C 18.042969 34.714844 18.910156 39.429688 17.917969 43.933594 "/>
<path style=" stroke:none;fill-rule:nonzero;fill:rgb(0%,0%,0%);fill-opacity:1;" d="M 8.351562 23.246094 C 8.351562 23.46875 8.011719 23.46875 8.011719 23.246094 C 8.011719 23.019531 8.351562 23.019531 8.351562 23.246094 "/>
<path style=" stroke:none;fill-rule:nonzero;fill:rgb(0%,0%,0%);fill-opacity:1;" d="M 33.5 32.894531 C 33.5 33.121094 33.164062 33.121094 33.164062 32.894531 C 33.164062 32.671875 33.5 32.671875 33.5 32.894531 "/>
<path style="fill:none;stroke-width:0.1125;stroke-linecap:butt;stroke-linejoin:miter;stroke:rgb(0%,0%,0%);stroke-opacity:1;stroke-miterlimit:10;" d="M 8.183594 23.246094 C 17.070312 24.949219 25.585938 28.214844 33.332031 32.894531 "/>
<path style=" stroke:none;fill-rule:nonzero;fill:rgb(0%,0%,0%);fill-opacity:1;" d="M 9.203125 27.742188 C 9.203125 27.964844 8.867188 27.964844 8.867188 27.742188 C 8.867188 27.515625 9.203125 27.515625 9.203125 27.742188 "/>
<path style=" stroke:none;fill-rule:nonzero;fill:rgb(0%,0%,0%);fill-opacity:1;" d="M 21.320312 27.710938 C 21.320312 27.933594 20.984375 27.933594 20.984375 27.710938 C 20.984375 27.484375 21.320312 27.484375 21.320312 27.710938 "/>
<path style="fill:none;stroke-width:0.1125;stroke-linecap:butt;stroke-linejoin:miter;stroke:rgb(0%,0%,0%);stroke-opacity:1;stroke-miterlimit:10;" d="M 9.035156 27.742188 C 13.066406 27.429688 17.117188 27.417969 21.152344 27.710938 "/>
<path style=" stroke:none;fill-rule:nonzero;fill:rgb(0%,0%,0%);fill-opacity:1;" d="M 34.5625 14.628906 C 34.5625 14.851562 34.226562 14.851562 34.226562 14.628906 C 34.226562 14.402344 34.5625 14.402344 34.5625 14.628906 "/>
<path style=" stroke:none;fill-rule:nonzero;fill:rgb(0%,0%,0%);fill-opacity:1;" d="M 21.84375 23.167969 C 21.84375 23.394531 21.507812 23.394531 21.507812 23.167969 C 21.507812 22.945312 21.84375 22.945312 21.84375 23.167969 "/>
<path style="fill:none;stroke-width:0.1125;stroke-linecap:butt;stroke-linejoin:miter;stroke:rgb(0%,0%,0%);stroke-opacity:1;stroke-miterlimit:10;" d="M 34.394531 14.628906 C 30.449219 17.890625 26.1875 20.75 21.675781 23.167969 "/>
<path style=" stroke:none;fill-rule:nonzero;fill:rgb(0%,0%,0%);fill-opacity:1;" d="M 8.667969 13.546875 C 8.667969 13.773438 8.328125 13.773438 8.328125 13.546875 C 8.328125 13.320312 8.667969 13.320312 8.667969 13.546875 "/>
<path style=" stroke:none;fill-rule:nonzero;fill:rgb(0%,0%,0%);fill-opacity:1;" d="M 4.914062 16.714844 C 4.914062 16.941406 4.574219 16.941406 4.574219 16.714844 C 4.574219 16.488281 4.914062 16.488281 4.914062 16.714844 "/>
<path style="fill:none;stroke-width:0.1125;stroke-linecap:butt;stroke-linejoin:miter;stroke:rgb(0%,0%,0%);stroke-opacity:1;stroke-miterlimit:10;" d="M 8.5 13.546875 C 8.539062 15.554688 6.71875 17.09375 4.746094 16.714844 "/>
<path style=" stroke:none;fill-rule:nonzero;fill:rgb(0%,0%,0%);fill-opacity:1;" d="M 4.519531 30.628906 C 4.519531 30.855469 4.183594 30.855469 4.183594 30.628906 C 4.183594 30.40625 4.519531 30.40625 4.519531 30.628906 "/>
<path style=" stroke:none;fill-rule:nonzero;fill:rgb(0%,0%,0%);fill-opacity:1;" d="M 24.941406 39.410156 C 24.941406 39.632812 24.605469 39.632812 24.605469 39.410156 C 24.605469 39.183594 24.941406 39.183594 24.941406 39.410156 "/>
<path style="fill:none;stroke-width:0.1125;stroke-linecap:butt;stroke-linejoin:miter;stroke:rgb(0%,0%,0%);stroke-opacity:1;stroke-miterlimit:10;" d="M 4.351562 30.628906 C 12.332031 28.949219 20.503906 32.460938 24.773438 39.410156 "/>
<path style=" stroke:none;fill-rule:nonzero;fill:rgb(0%,0%,0%);fill-opacity:1;" d="M 26.585938 45.996094 C 26.585938 46.21875 26.246094 46.21875 26.246094 45.996094 C 26.246094 45.769531 26.585938 45.769531 26.585938 45.996094 "/>
<path style=" stroke:none;fill-rule:nonzero;fill:rgb(0%,0%,0%);fill-opacity:1;" d="M 41.105469 22.507812 C 41.105469 22.730469 40.769531 22.730469 40.769531 22.507812 C 40.769531 22.28125 41.105469 22.28125 41.105469 22.507812 "/>
<path style="fill:none;stroke-width:0.1125;stroke-linecap:butt;stroke-linejoin:miter;stroke:rgb(0%,0%,0%);stroke-opacity:1;stroke-miterlimit:10;" d="M 26.417969 45.996094 C 26.328125 36.019531 31.976562 26.882812 40.9375 22.507812 "/>
<path style=" stroke:none;fill-rule:nonzero;fill:rgb(0%,0%,0%);fill-opacity:1;" d="M 35.039062 44.003906 C 35.039062 44.230469 34.703125 44.230469 34.703125 44.003906 C 34.703125 43.78125 35.039062 43.78125 35.039062 44.003906 "/>
<path style=" stroke:none;fill-rule:nonzero;fill:rgb(0%,0%,0%);fill-opacity:1;" d="M 4.410156 31.230469 C 4.410156 31.457031 4.070312 31.457031 4.070312 31.230469 C 4.070312 31.007812 4.410156 31.007812 4.410156 31.230469 "/>
<path style="fill:none;stroke-width:0.1125;stroke-linecap:butt;stroke-linejoin:miter;stroke:rgb(0%,0%,0%);stroke-opacity:1;stroke-miterlimit:10;" d="M 4.242188 31.230469 C 16.164062 28.050781 28.738281 33.292969 34.871094 44.003906 "/>
<path style=" stroke:none;fill-rule:nonzero;fill:rgb(0%,0%,0%);fill-opacity:1;" d="M 21.945312 33.34375 C 21.945312 33.570312 21.609375 33.570312 21.609375 33.34375 C 21.609375 33.121094 21.945312 33.121094 21.945312 33.34375 "/>
<path style=" stroke:none;fill-rule:nonzero;fill:rgb(0%,0%,0%);fill-opacity:1;" d="M 16.449219 16.035156 C 16.449219 16.257812 16.109375 16.257812 16.109375 16.035156 C 16.109375 15.808594 16.449219 15.808594 16.449219 16.035156 "/>
<path style="fill:none;stroke-width:0.1125;stroke-linecap:butt;stroke-linejoin:miter;stroke:rgb(0%,0%,0%);stroke-opacity:1;stroke-miterlimit:10;" d="M 16.277344 16.035156 C 19.148438 21.421875 21.011719 27.289062 21.777344 33.34375 "/>
<path style=" stroke:none;fill-rule:nonzero;fill:rgb(0%,0%,0%);fill-opacity:1;" d="M 12.417969 6.925781 C 12.417969 7.148438 12.082031 7.148438 12.082031 6.925781 C 12.082031 6.699219 12.417969 6.699219 12.417969 6.925781 "/>
<path style=" stroke:none;fill-rule:nonzero;fill:rgb(0%,0%,0%);fill-opacity:1;" d="M 16.816406 28.480469 C 16.816406 28.703125 16.480469 28.703125 16.480469 28.480469 C 16.480469 28.253906 16.816406 28.253906 16.816406 28.480469 "/>
<path style="fill:none;stroke-width:0.1125;stroke-linecap:butt;stroke-linejoin:miter;stroke:rgb(0%,0%,0%);stroke-opacity:1;stroke-miterlimit:10;" d="M 12.25 6.925781 C 16.566406 13.222656 18.152344 20.996094 16.648438 28.480469 "/>
<path style=" stroke:none;fill-rule:nonzero;fill:rgb(0%,0%,0%);fill-opacity:1;" d="M 33.226562 11.339844 C 33.226562 11.566406 32.890625 11.566406 32.890625 11.339844 C 32.890625 11.113281 33.226562 11.113281 33.226562 11.339844 "/>
<path style=" stroke:none;fill-rule:nonzero;fill:rgb(0%,0%,0%);fill-opacity:1;" d="M 12.355469 36.566406 C 12.355469 36.792969 12.019531 36.792969 12.019531 36.566406 C 12.019531 36.34375 12.355469 36.34375 12.355469 36.566406 "/>
<path style="fill:none;stroke-width:0.1125;stroke-linecap:butt;stroke-linejoin:miter;stroke:rgb(0%,0%,0%);stroke-opacity:1;stroke-miterlimit:10;" d="M 33.058594 11.339844 C 27.015625 20.464844 20.019531 28.921875 12.1875 36.566406 "/>
<path style=" stroke:none;fill-rule:nonzero;fill:rgb(0%,0%,0%);fill-opacity:1;" d="M 24.296875 10.496094 C 24.296875 10.71875 23.960938 10.71875 23.960938 10.496094 C 23.960938 10.269531 24.296875 10.269531 24.296875 10.496094 "/>
<path style=" stroke:none;fill-rule:nonzero;fill:rgb(0%,0%,0%);fill-opacity:1;" d="M 17.152344 26.539062 C 17.152344 26.765625 16.8125 26.765625 16.8125 26.539062 C 16.8125 26.3125 17.152344 26.3125 17.152344 26.539062 "/>
<path style="fill:none;stroke-width:0.1125;stroke-linecap:butt;stroke-linejoin:miter;stroke:rgb(0%,0%,0%);stroke-opacity:1;stroke-miterlimit:10;" d="M 24.128906 10.496094 C 22.96875 16.308594 20.527344 21.789062 16.984375 26.539062 "/>
<path style=" stroke:none;fill-rule:nonzero;fill:rgb(0%,0%,0%);fill-opacity:1;" d="M 36.851562 24.414062 C 36.851562 24.640625 36.511719 24.640625 36.511719 24.414062 C 36.511719 24.1875 36.851562 24.1875 36.851562 24.414062 "/>
<path style=" stroke:none;fill-rule:nonzero;fill:rgb(0%,0%,0%);fill-opacity:1;" d="M 25.449219 11.035156 C 25.449219 11.261719 25.109375 11.261719 25.109375 11.035156 C 25.109375 10.808594 25.449219 10.808594 25.449219 11.035156 "/>
<path style="fill:none;stroke-width:0.1125;stroke-linecap:butt;stroke-linejoin:miter;stroke:rgb(0%,0%,0%);stroke-opacity:1;stroke-miterlimit:10;" d="M 36.679688 24.414062 C 31.546875 21.289062 27.550781 16.601562 25.277344 11.035156 "/>
<path style=" stroke:none;fill-rule:nonzero;fill:rgb(0%,0%,0%);fill-opacity:1;" d="M 21.128906 32.289062 C 21.128906 32.511719 20.792969 32.511719 20.792969 32.289062 C 20.792969 32.0625 21.128906 32.0625 21.128906 32.289062 "/>
<path style=" stroke:none;fill-rule:nonzero;fill:rgb(0%,0%,0%);fill-opacity:1;" d="M 22.8125 15.898438 C 22.8125 16.121094 22.476562 16.121094 22.476562 15.898438 C 22.476562 15.671875 22.8125 15.671875 22.8125 15.898438 "/>
<path style="fill:none;stroke-width:0.1125;stroke-linecap:butt;stroke-linejoin:miter;stroke:rgb(0%,0%,0%);stroke-opacity:1;stroke-miterlimit:10;" d="M 22.644531 15.898438 C 22.605469 21.402344 22.042969 26.890625 20.960938 32.289062 "/>
<path style=" stroke:none;fill-rule:nonzero;fill:rgb(0%,0%,0%);fill-opacity:1;" d="M 33.078125 35.394531 C 33.078125 35.621094 32.742188 35.621094 32.742188 35.394531 C 32.742188 35.171875 33.078125 35.171875 33.078125 35.394531 "/>
<path style=" stroke:none;fill-rule:nonzero;fill:rgb(0%,0%,0%);fill-opacity:1;" d="M 13.382812 19.875 C 13.382812 20.101562 13.046875 20.101562 13.046875 19.875 C 13.046875 19.652344 13.382812 19.652344 13.382812 19.875 "/>
<path style="fill:none;stroke-width:0.1125;stroke-linecap:butt;stroke-linejoin:miter;stroke:rgb(0%,0%,0%);stroke-opacity:1;stroke-miterlimit:10;" d="M 13.214844 19.875 C 20.402344 24.207031 27.019531 29.421875 32.910156 35.394531 "/>
<path style=" stroke:none;fill-rule:nonzero;fill:rgb(0%,0%,0%);fill-opacity:1;" d="M 18.949219 11.765625 C 18.949219 11.988281 18.613281 11.988281 18.613281 11.765625 C 18.613281 11.539062 18.949219 11.539062 18.949219 11.765625 "/>
<path style=" stroke:none;fill-rule:nonzero;fill:rgb(0%,0%,0%);fill-opacity:1;" d="M 35.503906 30.46875 C 35.503906 30.695312 35.164062 30.695312 35.164062 30.46875 C 35.164062 30.242188 35.503906 30.242188 35.503906 30.46875 "/>
<path style="fill:none;stroke-width:0.1125;stroke-linecap:butt;stroke-linejoin:miter;stroke:rgb(0%,0%,0%);stroke-opacity:1;stroke-miterlimit:10;" d="M 35.332031 30.46875 C 28.859375 25.148438 23.273438 18.835938 18.78125 11.765625 "/>
<path style=" stroke:none;fill-rule:nonzero;fill:rgb(0%,0%,0%);fill-opacity:1;" d="M 11.277344 36.046875 C 11.277344 36.269531 10.941406 36.269531 10.941406 36.046875 C 10.941406 35.820312 11.277344 35.820312 11.277344 36.046875 "/>
<path style=" stroke:none;fill-rule:nonzero;fill:rgb(0%,0%,0%);fill-opacity:1;" d="M 9.402344 38.097656 C 9.402344 38.320312 9.0625 38.320312 9.0625 38.097656 C 9.0625 37.871094 9.402344 37.871094 9.402344 38.097656 "/>
<path style="fill:none;stroke-width:0.1125;stroke-linecap:butt;stroke-linejoin:miter;stroke:rgb(0%,0%,0%);stroke-opacity:1;stroke-miterlimit:10;" d="M 11.109375 36.046875 C 10.519531 36.761719 9.894531 37.449219 9.230469 38.097656 "/>
<path style=" stroke:none;fill-rule:nonzero;fill:rgb(0%,0%,0%);fill-opacity:1;" d="M 38.507812 32.871094 C 38.507812 33.09375 38.167969 33.09375 38.167969 32.871094 C 38.167969 32.644531 38.507812 32.644531 38.507812 32.871094 "/>
<path style=" stroke:none;fill-rule:nonzero;fill:rgb(0%,0%,0%);fill-opacity:1;" d="M 23.527344 23.023438 C 23.527344 23.246094 23.1875 23.246094 23.1875 23.023438 C 23.1875 22.796875 23.527344 22.796875 23.527344 23.023438 "/>
<path style="fill:none;stroke-width:0.1125;stroke-linecap:butt;stroke-linejoin:miter;stroke:rgb(0%,0%,0%);stroke-opacity:1;stroke-miterlimit:10;" d="M 38.335938 32.871094 C 33.265625 29.710938 28.269531 26.425781 23.359375 23.023438 "/>
<path style=" stroke:none;fill-rule:nonzero;fill:rgb(0%,0%,0%);fill-opacity:1;" d="M 25.703125 21.394531 C 25.703125 21.621094 25.367188 21.621094 25.367188 21.394531 C 25.367188 21.171875 25.703125 21.171875 25.703125 21.394531 "/>
<path style=" stroke:none;fill-rule:nonzero;fill:rgb(0%,0%,0%);fill-opacity:1;" d="M 15.480469 43.664062 C 15.480469 43.890625 15.144531 43.890625 15.144531 43.664062 C 15.144531 43.4375 15.480469 43.4375 15.480469 43.664062 "/>
<path style="fill:none;stroke-width:0.1125;stroke-linecap:butt;stroke-linejoin:miter;stroke:rgb(0%,0%,0%);stroke-opacity:1;stroke-miterlimit:10;" d="M 25.535156 21.394531 C 22.449219 28.960938 19.039062 36.390625 15.3125 43.664062 "/>
<path style=" stroke:none;fill-rule:nonzero;fill:rgb(0%,0%,0%);fill-opacity:1;" d="M 13.375 38.859375 C 13.375 39.082031 13.035156 39.082031 13.035156 38.859375 C 13.035156 38.632812 13.375 38.632812 13.375 38.859375 "/>
<path style=" stroke:none;fill-rule:nonzero;fill:rgb(0%,0%,0%);fill-opacity:1;" d="M 29.613281 37.515625 C 29.613281 37.742188 29.277344 37.742188 29.277344 37.515625 C 29.277344 37.292969 29.613281 37.292969 29.613281 37.515625 "/>
<path style="fill:none;stroke-width:0.1125;stroke-linecap:butt;stroke-linejoin:miter;stroke:rgb(0%,0%,0%);stroke-opacity:1;stroke-miterlimit:10;" d="M 13.203125 38.859375 C 18.042969 35.6875 24.152344 35.183594 29.445312 37.515625 "/>
<path style=" stroke:none;fill-rule:nonzero;fill:rgb(0%,0%,0%);fill-opacity:1;" d="M 36.828125 6.863281 C 36.828125 7.085938 36.492188 7.085938 36.492188 6.863281 C 36.492188 6.636719 36.828125 6.636719 36.828125 6.863281 "/>
<path style=" stroke:none;fill-rule:nonzero;fill:rgb(0%,0%,0%);fill-opacity:1;" d="M 21.199219 34.933594 C 21.199219 35.160156 20.859375 35.160156 20.859375 34.933594 C 20.859375 34.710938 21.199219 34.710938 21.199219 34.933594 "/>
<path style="fill:none;stroke-width:0.1125;stroke-linecap:butt;stroke-linejoin:miter;stroke:rgb(0%,0%,0%);stroke-opacity:1;stroke-miterlimit:10;" d="M 21.03125 34.933594 C 25.675781 25.273438 30.894531 15.898438 36.660156 6.863281 "/>
<path style=" stroke:none;fill-rule:nonzero;fill:rgb(0%,0%,0%);fill-opacity:1;" d="M 19.277344 35.839844 C 19.277344 36.066406 18.941406 36.066406 18.941406 35.839844 C 18.941406 35.613281 19.277344 35.613281 19.277344 35.839844 "/>
<path style=" stroke:none;fill-rule:nonzero;fill:rgb(0%,0%,0%);fill-opacity:1;" d="M 10.640625 33.960938 C 10.640625 34.1875 10.300781 34.1875 10.300781 33.960938 C 10.300781 33.738281 10.640625 33.738281 10.640625 33.960938 "/>
<path style="fill:none;stroke-width:0.1125;stroke-linecap:butt;stroke-linejoin:miter;stroke:rgb(0%,0%,0%);stroke-opacity:1;stroke-miterlimit:10;" d="M 10.46875 33.960938 C 13.476562 33.664062 16.5 34.320312 19.109375 35.839844 "/>
<path style=" stroke:none;fill-rule:nonzero;fill:rgb(0%,0%,0%);fill-opacity:1;" d="M 12.375 43.195312 C 12.375 43.417969 12.035156 43.417969 12.035156 43.195312 C 12.035156 42.96875 12.375 42.96875 12.375 43.195312 "/>
<path style=" stroke:none;fill-rule:nonzero;fill:rgb(0%,0%,0%);fill-opacity:1;" d="M 34.429688 33.160156 C 34.429688 33.386719 34.089844 33.386719 34.089844 33.160156 C 34.089844 32.9375 34.429688 32.9375 34.429688 33.160156 "/>
<path style="fill:none;stroke-width:0.1125;stroke-linecap:butt;stroke-linejoin:miter;stroke:rgb(0%,0%,0%);stroke-opacity:1;stroke-miterlimit:10;" d="M 12.207031 43.195312 C 17.253906 36.171875 25.648438 32.355469 34.257812 33.160156 "/>
<path style=" stroke:none;fill-rule:nonzero;fill:rgb(0%,0%,0%);fill-opacity:1;" d="M 40.234375 29.628906 C 40.234375 29.855469 39.898438 29.855469 39.898438 29.628906 C 39.898438 29.40625 40.234375 29.40625 40.234375 29.628906 "/>
<path style=" stroke:none;fill-rule:nonzero;fill:rgb(0%,0%,0%);fill-opacity:1;" d="M 41.304688 27.257812 C 41.304688 27.484375 40.964844 27.484375 40.964844 27.257812 C 40.964844 27.035156 41.304688 27.035156 41.304688 27.257812 "/>
<path style="fill:none;stroke-width:0.1125;stroke-linecap:butt;stroke-linejoin:miter;stroke:rgb(0%,0%,0%);stroke-opacity:1;stroke-miterlimit:10;" d="M 40.066406 29.628906 C 40.292969 28.789062 40.65625 27.988281 41.136719 27.257812 "/>
<path style=" stroke:none;fill-rule:nonzero;fill:rgb(0%,0%,0%);fill-opacity:1;" d="M 8.535156 12.304688 C 8.535156 12.53125 8.199219 12.53125 8.199219 12.304688 C 8.199219 12.082031 8.535156 12.082031 8.535156 12.304688 "/>
<path style=" stroke:none;fill-rule:nonzero;fill:rgb(0%,0%,0%);fill-opacity:1;" d="M 41.546875 11.347656 C 41.546875 11.574219 41.207031 11.574219 41.207031 11.347656 C 41.207031 11.125 41.546875 11.125 41.546875 11.347656 "/>
<path style="fill:none;stroke-width:0.1125;stroke-linecap:butt;stroke-linejoin:miter;stroke:rgb(0%,0%,0%);stroke-opacity:1;stroke-miterlimit:10;" d="M 41.375 11.347656 C 31.71875 18.722656 18.433594 19.105469 8.367188 12.304688 "/>
<path style=" stroke:none;fill-rule:nonzero;fill:rgb(0%,0%,0%);fill-opacity:1;" d="M 16.902344 45.003906 C 16.902344 45.226562 16.5625 45.226562 16.5625 45.003906 C 16.5625 44.777344 16.902344 44.777344 16.902344 45.003906 "/>
<path style=" stroke:none;fill-rule:nonzero;fill:rgb(0%,0%,0%);fill-opacity:1;" d="M 31.421875 23.425781 C 31.421875 23.652344 31.085938 23.652344 31.085938 23.425781 C 31.085938 23.203125 31.421875 23.203125 31.421875 23.425781 "/>
<path style="fill:none;stroke-width:0.1125;stroke-linecap:butt;stroke-linejoin:miter;stroke:rgb(0%,0%,0%);stroke-opacity:1;stroke-miterlimit:10;" d="M 16.730469 45.003906 C 20.175781 36.960938 25.101562 29.644531 31.253906 23.425781 "/>
<path style=" stroke:none;fill-rule:nonzero;fill:rgb(0%,0%,0%);fill-opacity:1;" d="M 16.261719 17.761719 C 16.261719 17.988281 15.921875 17.988281 15.921875 17.761719 C 15.921875 17.539062 16.261719 17.539062 16.261719 17.761719 "/>
<path style=" stroke:none;fill-rule:nonzero;fill:rgb(0%,0%,0%);fill-opacity:1;" d="M 29.203125 24.0625 C 29.203125 24.289062 28.863281 24.289062 28.863281 24.0625 C 28.863281 23.839844 29.203125 23.839844 29.203125 24.0625 "/>
<path style="fill:none;stroke-width:0.1125;stroke-linecap:butt;stroke-linejoin:miter;stroke:rgb(0%,0%,0%);stroke-opacity:1;stroke-miterlimit:10;" d="M 29.035156 24.0625 C 24.578125 22.269531 20.253906 20.164062 16.09375 17.761719 "/>
<path style=" stroke:none;fill-rule:nonzero;fill:rgb(0%,0%,0%);fill-opacity:1;" d="M 12.160156 11.398438 C 12.160156 11.621094 11.824219 11.621094 11.824219 11.398438 C 11.824219 11.171875 12.160156 11.171875 12.160156 11.398438 "/>
<path style=" stroke:none;fill-rule:nonzero;fill:rgb(0%,0%,0%);fill-opacity:1;" d="M 16.117188 30.769531 C 16.117188 30.996094 15.777344 30.996094 15.777344 30.769531 C 15.777344 30.542969 16.117188 30.542969 16.117188 30.769531 "/>
<path style="fill:none;stroke-width:0.1125;stroke-linecap:butt;stroke-linejoin:miter;stroke:rgb(0%,0%,0%);stroke-opacity:1;stroke-miterlimit:10;" d="M 11.992188 11.398438 C 15.882812 17.050781 17.3125 24.042969 15.949219 30.769531 "/>
<path style=" stroke:none;fill-rule:nonzero;fill:rgb(0%,0%,0%);fill-opacity:1;" d="M 28.53125 37.199219 C 28.53125 37.425781 28.195312 37.425781 28.195312 37.199219 C 28.195312 36.972656 28.53125 36.972656 28.53125 37.199219 "/>
<path style=" stroke:none;fill-rule:nonzero;fill:rgb(0%,0%,0%);fill-opacity:1;" d="M 17.183594 13.9375 C 17.183594 14.160156 16.84375 14.160156 16.84375 13.9375 C 16.84375 13.710938 17.183594 13.710938 17.183594 13.9375 "/>
<path style="fill:none;stroke-width:0.1125;stroke-linecap:butt;stroke-linejoin:miter;stroke:rgb(0%,0%,0%);stroke-opacity:1;stroke-miterlimit:10;" d="M 17.015625 13.9375 C 21.488281 21.335938 25.285156 29.121094 28.363281 37.199219 "/>
<path style=" stroke:none;fill-rule:nonzero;fill:rgb(0%,0%,0%);fill-opacity:1;" d="M 25.5625 25.589844 C 25.5625 25.816406 25.222656 25.816406 25.222656 25.589844 C 25.222656 25.363281 25.5625 25.363281 25.5625 25.589844 "/>
<path style=" stroke:none;fill-rule:nonzero;fill:rgb(0%,0%,0%);fill-opacity:1;" d="M 18.144531 35.296875 C 18.144531 35.523438 17.804688 35.523438 17.804688 35.296875 C 17.804688 35.070312 18.144531 35.070312 18.144531 35.296875 "/>
<path style="fill:none;stroke-width:0.1125;stroke-linecap:butt;stroke-linejoin:miter;stroke:rgb(0%,0%,0%);stroke-opacity:1;stroke-miterlimit:10;" d="M 17.972656 35.296875 C 20.394531 32.019531 22.867188 28.785156 25.394531 25.589844 "/>
<path style=" stroke:none;fill-rule:nonzero;fill:rgb(0%,0%,0%);fill-opacity:1;" d="M 9.925781 16.933594 C 9.925781 17.160156 9.585938 17.160156 9.585938 16.933594 C 9.585938 16.707031 9.925781 16.707031 9.925781 16.933594 "/>
<path style=" stroke:none;fill-rule:nonzero;fill:rgb(0%,0%,0%);fill-opacity:1;" d="M 39.132812 41.742188 C 39.132812 41.96875 38.796875 41.96875 38.796875 41.742188 C 38.796875 41.519531 39.132812 41.519531 39.132812 41.742188 "/>
<path style="fill:none;stroke-width:0.1125;stroke-linecap:butt;stroke-linejoin:miter;stroke:rgb(0%,0%,0%);stroke-opacity:1;stroke-miterlimit:10;" d="M 9.753906 16.933594 C 20.796875 23.53125 30.667969 31.914062 38.964844 41.742188 "/>
<path style=" stroke:none;fill-rule:nonzero;fill:rgb(0%,0%,0%);fill-opacity:1;" d="M 21.117188 38.433594 C 21.117188 38.660156 20.78125 38.660156 20.78125 38.433594 C 20.78125 38.210938 21.117188 38.210938 21.117188 38.433594 "/>
<path style=" stroke:none;fill-rule:nonzero;fill:rgb(0%,0%,0%);fill-opacity:1;" d="M 36.308594 35.769531 C 36.308594 35.996094 35.96875 35.996094 35.96875 35.769531 C 35.96875 35.546875 36.308594 35.546875 36.308594 35.769531 "/>
<path style="fill:none;stroke-width:0.1125;stroke-linecap:butt;stroke-linejoin:miter;stroke:rgb(0%,0%,0%);stroke-opacity:1;stroke-miterlimit:10;" d="M 20.949219 38.433594 C 25.355469 35.308594 30.933594 34.328125 36.136719 35.769531 "/>
<path style=" stroke:none;fill-rule:nonzero;fill:rgb(0%,0%,0%);fill-opacity:1;" d="M 36.414062 38.3125 C 36.414062 38.535156 36.078125 38.535156 36.078125 38.3125 C 36.078125 38.085938 36.414062 38.085938 36.414062 38.3125 "/>
<path style=" stroke:none;fill-rule:nonzero;fill:rgb(0%,0%,0%);fill-opacity:1;" d="M 31.628906 24.183594 C 31.628906 24.40625 31.292969 24.40625 31.292969 24.183594 C 31.292969 23.957031 31.628906 23.957031 31.628906 24.183594 "/>
<path style="fill:none;stroke-width:0.1125;stroke-linecap:butt;stroke-linejoin:miter;stroke:rgb(0%,0%,0%);stroke-opacity:1;stroke-miterlimit:10;" d="M 36.246094 38.3125 C 33.671875 33.992188 32.039062 29.175781 31.460938 24.183594 "/>
<path style=" stroke:none;fill-rule:nonzero;fill:rgb(0%,0%,0%);fill-opacity:1;" d="M 32.019531 33.445312 C 32.019531 33.671875 31.683594 33.671875 31.683594 33.445312 C 31.683594 33.21875 32.019531 33.21875 32.019531 33.445312 "/>
<path style=" stroke:none;fill-rule:nonzero;fill:rgb(0%,0%,0%);fill-opacity:1;" d="M 44.277344 36.550781 C 44.277344 36.773438 43.941406 36.773438 43.941406 36.550781 C 43.941406 36.324219 44.277344 36.324219 44.277344 36.550781 "/>
<path style="fill:none;stroke-width:0.1125;stroke-linecap:butt;stroke-linejoin:miter;stroke:rgb(0%,0%,0%);stroke-opacity:1;stroke-miterlimit:10;" d="M 31.851562 33.445312 C 36.152344 33.273438 40.410156 34.351562 44.109375 36.550781 "/>
<path style=" stroke:none;fill-rule:nonzero;fill:rgb(0%,0%,0%);fill-opacity:1;" d="M 26.464844 41.710938 C 26.464844 41.9375 26.128906 41.9375 26.128906 41.710938 C 26.128906 41.484375 26.464844 41.484375 26.464844 41.710938 "/>
<path style=" stroke:none;fill-rule:nonzero;fill:rgb(0%,0%,0%);fill-opacity:1;" d="M 35.820312 16.15625 C 35.820312 16.382812 35.480469 16.382812 35.480469 16.15625 C 35.480469 15.933594 35.820312 15.933594 35.820312 16.15625 "/>
<path style="fill:none;stroke-width:0.1125;stroke-linecap:butt;stroke-linejoin:miter;stroke:rgb(0%,0%,0%);stroke-opacity:1;stroke-miterlimit:10;" d="M 26.296875 41.710938 C 26.882812 32.46875 30.128906 23.59375 35.648438 16.15625 "/>
<path style=" stroke:none;fill-rule:nonzero;fill:rgb(0%,0%,0%);fill-opacity:1;" d="M 12.128906 11.988281 C 12.128906 12.214844 11.789062 12.214844 11.789062 11.988281 C 11.789062 11.761719 12.128906 11.761719 12.128906 11.988281 "/>
<path style=" stroke:none;fill-rule:nonzero;fill:rgb(0%,0%,0%);fill-opacity:1;" d="M 12.769531 30.671875 C 12.769531 30.898438 12.433594 30.898438 12.433594 30.671875 C 12.433594 30.449219 12.769531 30.449219 12.769531 30.671875 "/>
<path style="fill:none;stroke-width:0.1125;stroke-linecap:butt;stroke-linejoin:miter;stroke:rgb(0%,0%,0%);stroke-opacity:1;stroke-miterlimit:10;" d="M 11.957031 11.988281 C 15.421875 17.675781 15.664062 24.761719 12.601562 30.671875 "/>
<path style=" stroke:none;fill-rule:nonzero;fill:rgb(0%,0%,0%);fill-opacity:1;" d="M 16.054688 16.164062 C 16.054688 16.390625 15.71875 16.390625 15.71875 16.164062 C 15.71875 15.9375 16.054688 15.9375 16.054688 16.164062 "/>
<path style=" stroke:none;fill-rule:nonzero;fill:rgb(0%,0%,0%);fill-opacity:1;" d="M 29.429688 13.707031 C 29.429688 13.929688 29.09375 13.929688 29.09375 13.707031 C 29.09375 13.480469 29.429688 13.480469 29.429688 13.707031 "/>
<path style="fill:none;stroke-width:0.1125;stroke-linecap:butt;stroke-linejoin:miter;stroke:rgb(0%,0%,0%);stroke-opacity:1;stroke-miterlimit:10;" d="M 29.261719 13.707031 C 25.164062 15.878906 20.492188 16.738281 15.886719 16.164062 "/>
</g>
</svg>
