<?xml version="1.0" encoding="UTF-8"?>
<svg xmlns="http://www.w3.org/2000/svg" xmlns:xlink="http://www.w3.org/1999/xlink" width="50pt" height="50pt" viewBox="0 0 50 50" version="1.1">
<g id="surface1">
<rect x="0" y="0" width="50" height="50" style="fill:rgb(100%,100%,100%);fill-opacity:1;stroke:none;"/>
<path style="fill:none;stroke-width:0.1125;stroke-linecap:butt;stroke-linejoin:miter;stroke:rgb(0%,0%,0%);stroke-opacity:1;stroke-miterlimit:10;" d="M 47.5 25 C 47.5 37.425781 37.425781 47.5 25 47.5 C 12.574219 47.5 2.5 37.425781 2.5 25 C 2.5 12.574219 12.574219 2.5 25 2.5 C 37.425781 2.5 47.5 12.574219 47.5 25 "/>
<path style=" stroke:none;fill-rule:nonzero;fill:rgb(0%,0%,0%);fill-opacity:1;" d="M 25.167969 25 C 25.167969 25.226562 24.832031 25.226562 24.832031 25 C 24.832031 24.773438 25.167969 24.773438 25.167969 25 "/>
<path style=" stroke:none;fill-rule:nonzero;fill:rgb(0%,0%,0%);fill-opacity:1;" d="M 30.785156 14.605469 C 30.785156 14.828125 30.445312 14.828125 30.445312 14.605469 C 30.445312 14.378906 30.785156 14.378906 30.785156 14.605469 "/>
<path style=" stroke:none;fill-rule:nonzero;fill:rgb(0%,0%,0%);fill-opacity:1;" d="M 20.382812 8.0625 C 20.382812 8.289062 20.046875 8.289062 20.046875 8.0625 C 20.046875 7.839844 20.382812 7.839844 20.382812 8.0625 "/>
<path style="fill:none;stroke-width:0.1125;stroke-linecap:butt;stroke-linejoin:miter;stroke:rgb(0%,0%,0%);stroke-opacity:1;stroke-miterlimit:10;" d="M 30.617188 14.605469 C 26.429688 13.859375 22.699219 11.515625 20.214844 8.0625 "/>
<path style=" stroke:none;fill-rule:nonzero;fill:rgb(0%,0%,0%);fill-opacity:1;" d="M 39.289062 15.929688 C 39.289062 16.152344 38.953125 16.152344 38.953125 15.929688 C 38.953125 15.703125 39.289062 15.703125 39.289062 15.929688 "/>
<path style=" stroke:none;fill-rule:nonzero;fill:rgb(0%,0%,0%);fill-opacity:1;" d="M 22.730469 11.140625 C 22.730469 11.363281 22.394531 11.363281 22.394531 11.140625 C 22.394531 10.914062 22.730469 10.914062 22.730469 11.140625 "/>
<path style="fill:none;stroke-width:0.1125;stroke-linecap:butt;stroke-linejoin:miter;stroke:rgb(0%,0%,0%);stroke-opacity:1;stroke-miterlimit:10;" d="M 39.121094 15.929688 C 33.148438 17.152344 26.960938 15.359375 22.5625 11.140625 "/>
<path style=" stroke:none;fill-rule:nonzero;fill:rgb(0%,0%,0%);fill-opacity:1;" d="M 39.261719 36.710938 C 39.261719 36.933594 38.925781 36.933594 38.925781 36.710938 C 38.925781 36.484375 39.261719 36.484375 39.261719 36.710938 "/>
<path style=" stroke:none;fill-rule:nonzero;fill:rgb(0%,0%,0%);fill-opacity:1;" d="M 19.695312 27.785156 C 19.695312 28.007812 19.359375 28.007812 19.359375 27.785156 C 19.359375 27.558594 19.695312 27.558594 19.695312 27.785156 "/>
<path style="fill:none;stroke-width:0.1125;stroke-linecap:butt;stroke-linejoin:miter;stroke:rgb(0%,0%,0%);stroke-opacity:1;stroke-miterlimit:10;" d="M 19.527344 27.785156 C 26.546875 29.519531 33.183594 32.546875 39.09375 36.710938 "/>
<path style=" stroke:none;fill-rule:nonzero;fill:rgb(0%,0%,0%);fill-opacity:1;" d="M 36.886719 39.066406 C 36.886719 39.292969 36.550781 39.292969 36.550781 39.066406 C 36.550781 38.839844 36.886719 38.839844 36.886719 39.066406 "/>
<path style=" stroke:none;fill-rule:nonzero;fill:rgb(0%,0%,0%);fill-opacity:1;" d="M 41.792969 30.808594 C 41.792969 31.035156 41.457031 31.035156 41.457031 30.808594 C 41.457031 30.582031 41.792969 30.582031 41.792969 30.808594 "/>
<path style="fill:none;stroke-width:0.1125;stroke-linecap:butt;stroke-linejoin:miter;stroke:rgb(0%,0%,0%);stroke-opacity:1;stroke-miterlimit:10;" d="M 36.71875 39.066406 C 36.40625 35.542969 38.382812 32.214844 41.625 30.808594 "/>
<path style=" stroke:none;fill-rule:nonzero;fill:rgb(0%,0%,0%);fill-opacity:1;" d="M 40.882812 23.394531 C 40.882812 23.621094 40.542969 23.621094 40.542969 23.394531 C 40.542969 23.171875 40.882812 23.171875 40.882812 23.394531 "/>
<path style=" stroke:none;fill-rule:nonzero;fill:rgb(0%,0%,0%);fill-opacity:1;" d="M 31.644531 36.195312 C 31.644531 36.421875 31.308594 36.421875 31.308594 36.195312 C 31.308594 35.96875 31.644531 35.96875 31.644531 36.195312 "/>
<path style="fill:none;stroke-width:0.1125;stroke-linecap:butt;stroke-linejoin:miter;stroke:rgb(0%,0%,0%);stroke-opacity:1;stroke-miterlimit:10;" d="M 31.476562 36.195312 C 32.621094 30.820312 35.972656 26.175781 40.714844 23.394531 "/>
<path style=" stroke:none;fill-rule:nonzero;fill:rgb(0%,0%,0%);fill-opacity:1;" d="M 16.511719 19.515625 C 16.511719 19.742188 16.175781 19.742188 16.175781 19.515625 C 16.175781 19.289062 16.511719 19.289062 16.511719 19.515625 "/>
<path style=" stroke:none;fill-rule:nonzero;fill:rgb(0%,0%,0%);fill-opacity:1;" d="M 11.714844 31.4375 C 11.714844 31.664062 11.378906 31.664062 11.378906 31.4375 C 11.378906 31.214844 11.714844 31.214844 11.714844 31.4375 "/>
<path style="fill:none;stroke-width:0.1125;stroke-linecap:butt;stroke-linejoin:miter;stroke:rgb(0%,0%,0%);stroke-opacity:1;stroke-miterlimit:10;" d="M 16.34375 19.515625 C 15.964844 23.878906 14.292969 28.027344 11.546875 31.4375 "/>
<path style=" stroke:none;fill-rule:nonzero;fill:rgb(0%,0%,0%);fill-opacity:1;" d="M 20.625 13.054688 C 20.625 13.277344 20.289062 13.277344 20.289062 13.054688 C 20.289062 12.828125 20.625 12.828125 20.625 13.054688 "/>
<path style=" stroke:none;fill-rule:nonzero;fill:rgb(0%,0%,0%);fill-opacity:1;" d="M 30.441406 29.730469 C 30.441406 29.957031 30.105469 29.957031 30.105469 29.730469 C 30.105469 29.507812 30.441406 29.507812 30.441406 29.730469 "/>
<path style="fill:none;stroke-width:0.1125;stroke-linecap:butt;stroke-linejoin:miter;stroke:rgb(0%,0%,0%);stroke-opacity:1;stroke-miterlimit:10;" d="M 30.273438 29.730469 C 26.613281 24.410156 23.332031 18.835938 20.457031 13.054688 "/>
<path style=" stroke:none;fill-rule:nonzero;fill:rgb(0%,0%,0%);fill-opacity:1;" d="M 19.007812 36.617188 C 19.007812 36.84375 18.667969 36.84375 18.667969 36.617188 C 18.667969 36.394531 19.007812 36.394531 19.007812 36.617188 "/>
<path style=" stroke:none;fill-rule:nonzero;fill:rgb(0%,0%,0%);fill-opacity:1;" d="M 13.082031 14.453125 C 13.082031 14.675781 12.746094 14.675781 12.746094 14.453125 C 12.746094 14.226562 13.082031 14.226562 13.082031 14.453125 "/>
<path style="fill:none;stroke-width:0.1125;stroke-linecap:butt;stroke-linejoin:miter;stroke:rgb(0%,0%,0%);stroke-opacity:1;stroke-miterlimit:10;" d="M 12.914062 14.453125 C 17.476562 20.894531 19.578125 28.757812 18.839844 36.617188 "/>
<path style=" stroke:none;fill-rule:nonzero;fill:rgb(0%,0%,0%);fill-opacity:1;" d="M 26.441406 9.03125 C 26.441406 9.257812 26.105469 9.257812 26.105469 9.03125 C 26.105469 8.804688 26.441406 8.804688 26.441406 9.03125 "/>
<path style=" stroke:none;fill-rule:nonzero;fill:rgb(0%,0%,0%);fill-opacity:1;" d="M 8.882812 38.359375 C 8.882812 38.585938 8.542969 38.585938 8.542969 38.359375 C 8.542969 38.136719 8.882812 38.136719 8.882812 38.359375 "/>
<path style="fill:none;stroke-width:0.1125;stroke-linecap:butt;stroke-linejoin:miter;stroke:rgb(0%,0%,0%);stroke-opacity:1;stroke-miterlimit:10;" d="M 26.273438 9.03125 C 23.699219 20.429688 17.542969 30.707031 8.710938 38.359375 "/>
<path style=" stroke:none;fill-rule:nonzero;fill:rgb(0%,0%,0%);fill-opacity:1;" d="M 39.476562 18.257812 C 39.476562 18.480469 39.140625 18.480469 39.140625 18.257812 C 39.140625 18.03125 39.476562 18.03125 39.476562 18.257812 "/>
<path style=" stroke:none;fill-rule:nonzero;fill:rgb(0%,0%,0%);fill-opacity:1;" d="M 14.320312 41.792969 C 14.320312 42.019531 13.984375 42.019531 13.984375 41.792969 C 13.984375 41.570312 14.320312 41.570312 14.320312 41.792969 "/>
<path style="fill:none;stroke-width:0.1125;stroke-linecap:butt;stroke-linejoin:miter;stroke:rgb(0%,0%,0%);stroke-opacity:1;stroke-miterlimit:10;" d="M 14.152344 41.792969 C 20.769531 32.25 29.34375 24.222656 39.308594 18.257812 "/>
<path style=" stroke:none;fill-rule:nonzero;fill:rgb(0%,0%,0%);fill-opacity:1;" d="M 18.164062 42.265625 C 18.164062 42.488281 17.824219 42.488281 17.824219 42.265625 C 17.824219 42.039062 18.164062 42.039062 18.164062 42.265625 "/>
<path style=" stroke:none;fill-rule:nonzero;fill:rgb(0%,0%,0%);fill-opacity:1;" d="M 31.710938 44.242188 C 31.710938 44.464844 31.371094 44.464844 31.371094 44.242188 C 31.371094 44.015625 31.710938 44.015625 31.710938 44.242188 "/>
<path style="fill:none;stroke-width:0.1125;stroke-linecap:butt;stroke-linejoin:miter;stroke:rgb(0%,0%,0%);stroke-opacity:1;stroke-miterlimit:10;" d="M 17.996094 42.265625 C 19.996094 40.578125 22.625 39.832031 25.210938 40.207031 C 27.800781 40.585938 30.105469 42.054688 31.542969 44.242188 "/>
<path style=" stroke:none;fill-rule:nonzero;fill:rgb(0%,0%,0%);fill-opacity:1;" d="M 45.285156 24.429688 C 45.285156 24.65625 44.949219 24.65625 44.949219 24.429688 C 44.949219 24.207031 45.285156 24.207031 45.285156 24.429688 "/>
<path style=" stroke:none;fill-rule:nonzero;fill:rgb(0%,0%,0%);fill-opacity:1;" d="M 21.617188 12.691406 C 21.617188 12.917969 21.28125 12.917969 21.28125 12.691406 C 21.28125 12.46875 21.617188 12.46875 21.617188 12.691406 "/>
<path style="fill:none;stroke-width:0.1125;stroke-linecap:butt;stroke-linejoin:miter;stroke:rgb(0%,0%,0%);stroke-opacity:1;stroke-miterlimit:10;" d="M 45.117188 24.429688 C 35.9375 23.988281 27.355469 19.734375 21.449219 12.691406 "/>
<path style=" stroke:none;fill-rule:nonzero;fill:rgb(0%,0%,0%);fill-opacity:1;" d="M 26.1875 40.964844 C 26.1875 41.191406 25.851562 41.191406 25.851562 40.964844 C 25.851562 40.742188 26.1875 40.742188 26.1875 40.964844 "/>
<path style=" stroke:none;fill-rule:nonzero;fill:rgb(0%,0%,0%);fill-opacity:1;" d="M 18.078125 37.757812 C 18.078125 37.984375 17.742188 37.984375 17.742188 37.757812 C 17.742188 37.535156 18.078125 37.535156 18.078125 37.757812 "/>
<path style="fill:none;stroke-width:0.1125;stroke-linecap:butt;stroke-linejoin:miter;stroke:rgb(0%,0%,0%);stroke-opacity:1;stroke-miterlimit:10;" d="M 17.910156 37.757812 C 20.929688 37.726562 23.839844 38.878906 26.019531 40.964844 "/>
<path style=" stroke:none;fill-rule:nonzero;fill:rgb(0%,0%,0%);fill-opacity:1;" d="M 33.988281 4.96875 C 33.988281 5.195312 33.652344 5.195312 33.652344 4.96875 C 33.652344 4.742188 33.988281 4.742188 33.988281 4.96875 "/>
<path style=" stroke:none;fill-rule:nonzero;fill:rgb(0%,0%,0%);fill-opacity:1;" d="M 33.125 16.167969 C 33.125 16.390625 32.789062 16.390625 32.789062 16.167969 C 32.789062 15.941406 33.125 15.941406 33.125 16.167969 "/>
<path style="fill:none;stroke-width:0.1125;stroke-linecap:butt;stroke-linejoin:miter;stroke:rgb(0%,0%,0%);stroke-opacity:1;stroke-miterlimit:10;" d="M 32.957031 16.167969 C 32.089844 12.433594 32.394531 8.523438 33.820312 4.96875 "/>
<path style=" stroke:none;fill-rule:nonzero;fill:rgb(0%,0%,0%);fill-opacity:1;" d="M 39.277344 33.652344 C 39.277344 33.875 38.941406 33.875 38.941406 33.652344 C 38.941406 33.425781 39.277344 33.425781 39.277344 33.652344 "/>
<path style=" stroke:none;fill-rule:nonzero;fill:rgb(0%,0%,0%);fill-opacity:1;" d="M 21.261719 43.261719 C 21.261719 43.484375 20.925781 43.484375 20.925781 43.261719 C 20.925781 43.035156 21.261719 43.035156 21.261719 43.261719 "/>
<path style="fill:none;stroke-width:0.1125;stroke-linecap:butt;stroke-linejoin:miter;stroke:rgb(0%,0%,0%);stroke-opacity:1;stroke-miterlimit:10;" d="M 21.09375 43.261719 C 24.398438 36.507812 31.660156 32.636719 39.109375 33.652344 "/>
<path style=" stroke:none;fill-rule:nonzero;fill:rgb(0%,0%,0%);fill-opacity:1;" d="M 13.75 14.210938 C 13.75 14.4375 13.410156 14.4375 13.410156 14.210938 C 13.410156 13.988281 13.75 13.988281 13.75 14.210938 "/>
<path style=" stroke:none;fill-rule:nonzero;fill:rgb(0%,0%,0%);fill-opacity:1;" d="M 24.898438 23.484375 C 24.898438 23.707031 24.558594 23.707031 24.558594 23.484375 C 24.558594 23.257812 24.898438 23.257812 24.898438 23.484375 "/>
<path style="fill:none;stroke-width:0.1125;stroke-linecap:butt;stroke-linejoin:miter;stroke:rgb(0%,0%,0%);stroke-opacity:1;stroke-miterlimit:10;" d="M 24.730469 23.484375 C 20.921875 20.503906 17.203125 17.410156 13.578125 14.210938 "/>
<path style=" stroke:none;fill-rule:nonzero;fill:rgb(0%,0%,0%);fill-opacity:1;" d="M 19.300781 19.171875 C 19.300781 19.398438 18.964844 19.398438 18.964844 19.171875 C 18.964844 18.945312 19.300781 18.945312 19.300781 19.171875 "/>
<path style=" stroke:none;fill-rule:nonzero;fill:rgb(0%,0%,0%);fill-opacity:1;" d="M 32.417969 15.585938 C 32.417969 15.8125 32.082031 15.8125 32.082031 15.585938 C 32.082031 15.363281 32.417969 15.363281 32.417969 15.585938 "/>
<path style="fill:none;stroke-width:0.1125;stroke-linecap:butt;stroke-linejoin:miter;stroke:rgb(0%,0%,0%);stroke-opacity:1;stroke-miterlimit:10;" d="M 32.25 15.585938 C 28.152344 17.625 23.699219 18.84375 19.132812 19.171875 "/>
<path style=" stroke:none;fill-rule:nonzero;fill:rgb(0%,0%,0%);fill-opacity:1;" d="M 31.589844 9.4375 C 31.589844 9.660156 31.253906 9.660156 31.253906 9.4375 C 31.253906 9.210938 31.589844 9.210938 31.589844 9.4375 "/>
<path style=" stroke:none;fill-rule:nonzero;fill:rgb(0%,0%,0%);fill-opacity:1;" d="M 12.425781 21.296875 C 12.425781 21.523438 12.085938 21.523438 12.085938 21.296875 C 12.085938 21.074219 12.425781 21.074219 12.425781 21.296875 "/>
<path style="fill:none;stroke-width:0.1125;stroke-linecap:butt;stroke-linejoin:miter;stroke:rgb(0%,0%,0%);stroke-opacity:1;stroke-miterlimit:10;" d="M 31.421875 9.4375 C 26.878906 15.796875 19.976562 20.070312 12.253906 21.296875 "/>
<path style=" stroke:none;fill-rule:nonzero;fill:rgb(0%,0%,0%);fill-opacity:1;" d="M 7.304688 27.957031 C 7.304688 28.179688 6.964844 28.179688 6.964844 27.957031 C 6.964844 27.730469 7.304688 27.730469 7.304688 27.957031 "/>
<path style=" stroke:none;fill-rule:nonzero;fill:rgb(0%,0%,0%);fill-opacity:1;" d="M 37.558594 12.605469 C 37.558594 12.828125 37.222656 12.828125 37.222656 12.605469 C 37.222656 12.378906 37.558594 12.378906 37.558594 12.605469 "/>
<path style="fill:none;stroke-width:0.1125;stroke-linecap:butt;stroke-linejoin:miter;stroke:rgb(0%,0%,0%);stroke-opacity:1;stroke-miterlimit:10;" d="M 37.390625 12.605469 C 28.667969 20.054688 18.296875 25.316406 7.136719 27.957031 "/>
<path style=" stroke:none;fill-rule:nonzero;fill:rgb(0%,0%,0%);fill-opacity:1;" d="M 22.617188 35.542969 C 22.617188 35.765625 22.28125 35.765625 22.28125 35.542969 C 22.28125 35.316406 22.617188 35.316406 22.617188 35.542969 "/>
<path style=" stroke:none;fill-rule:nonzero;fill:rgb(0%,0%,0%);fill-opacity:1;" d="M 43.761719 35.195312 C 43.761719 35.421875 43.425781 35.421875 43.425781 35.195312 C 43.425781 34.96875 43.761719 34.96875 43.761719 35.195312 "/>
<path style="fill:none;stroke-width:0.1125;stroke-linecap:butt;stroke-linejoin:miter;stroke:rgb(0%,0%,0%);stroke-opacity:1;stroke-miterlimit:10;" d="M 22.449219 35.542969 C 29.054688 32.121094 36.882812 31.992188 43.59375 35.195312 "/>
<path style=" stroke:none;fill-rule:nonzero;fill:rgb(0%,0%,0%);fill-opacity:1;" d="M 12.699219 33.070312 C 12.699219 33.296875 12.363281 33.296875 12.363281 33.070312 C 12.363281 32.84375 12.699219 32.84375 12.699219 33.070312 "/>
<path style=" stroke:none;fill-rule:nonzero;fill:rgb(0%,0%,0%);fill-opacity:1;" d="M 19.375 24.90625 C 19.375 25.132812 19.039062 25.132812 19.039062 24.90625 C 19.039062 24.683594 19.375 24.683594 19.375 24.90625 "/>
<path style="fill:none;stroke-width:0.1125;stroke-linecap:butt;stroke-linejoin:miter;stroke:rgb(0%,0%,0%);stroke-opacity:1;stroke-miterlimit:10;" d="M 19.207031 24.90625 C 17.289062 27.863281 15.050781 30.601562 12.53125 33.070312 "/>
<path style=" stroke:none;fill-rule:nonzero;fill:rgb(0%,0%,0%);fill-opacity:1;" d="M 37.335938 31.554688 C 37.335938 31.78125 37 31.78125 37 31.554688 C 37 31.332031 37.335938 31.332031 37.335938 31.554688 "/>
<path style=" stroke:none;fill-rule:nonzero;fill:rgb(0%,0%,0%);fill-opacity:1;" d="M 38.136719 17.761719 C 38.136719 17.988281 37.800781 17.988281 37.800781 17.761719 C 37.800781 17.539062 38.136719 17.539062 38.136719 17.761719 "/>
<path style="fill:none;stroke-width:0.1125;stroke-linecap:butt;stroke-linejoin:miter;stroke:rgb(0%,0%,0%);stroke-opacity:1;stroke-miterlimit:10;" d="M 37.167969 31.554688 C 35.5 27.046875 35.789062 22.046875 37.96875 17.761719 "/>
<path style=" stroke:none;fill-rule:nonzero;fill:rgb(0%,0%,0%);fill-opacity:1;" d="M 38.007812 15.996094 C 38.007812 16.222656 37.671875 16.222656 37.671875 15.996094 C 37.671875 15.773438 38.007812 15.773438 38.007812 15.996094 "/>
<path style=" stroke:none;fill-rule:nonzero;fill:rgb(0%,0%,0%);fill-opacity:1;" d="M 17.4375 5.257812 C 17.4375 5.480469 17.101562 5.480469 17.101562 5.257812 C 17.101562 5.03125 17.4375 5.03125 17.4375 5.257812 "/>
<path style="fill:none;stroke-width:0.1125;stroke-linecap:butt;stroke-linejoin:miter;stroke:rgb(0%,0%,0%);stroke-opacity:1;stroke-miterlimit:10;" d="M 37.839844 15.996094 C 29.351562 17.414062 20.957031 13.03125 17.269531 5.257812 "/>
<path style=" stroke:none;fill-rule:nonzero;fill:rgb(0%,0%,0%);fill-opacity:1;" d="M 18.21875 19.402344 C 18.21875 19.625 17.878906 19.625 17.878906 19.402344 C 17.878906 19.175781 18.21875 19.175781 18.21875 19.402344 "/>
<path style=" stroke:none;fill-rule:nonzero;fill:rgb(0%,0%,0%);fill-opacity:1;" d="M 28.152344 19.789062 C 28.152344 20.015625 27.8125 20.015625 27.8125 19.789062 C 27.8125 19.5625 28.152344 19.5625 28.152344 19.789062 "/>
<path style="fill:none;stroke-width:0.1125;stroke-linecap:butt;stroke-linejoin:miter;stroke:rgb(0%,0%,0%);stroke-opacity:1;stroke-miterlimit:10;" d="M 27.984375 19.789062 C 24.667969 20.011719 21.335938 19.878906 18.046875 19.402344 "/>
<path style=" stroke:none;fill-rule:nonzero;fill:rgb(0%,0%,0%);fill-opacity:1;" d="M 10.851562 42.328125 C 10.851562 42.554688 10.515625 42.554688 10.515625 42.328125 C 10.515625 42.105469 10.851562 42.105469 10.851562 42.328125 "/>
<path style=" stroke:none;fill-rule:nonzero;fill:rgb(0%,0%,0%);fill-opacity:1;" d="M 43.292969 24.820312 C 43.292969 25.042969 42.953125 25.042969 42.953125 24.820312 C 42.953125 24.59375 43.292969 24.59375 43.292969 24.820312 "/>
<path style="fill:none;stroke-width:0.1125;stroke-linecap:butt;stroke-linejoin:miter;stroke:rgb(0%,0%,0%);stroke-opacity:1;stroke-miterlimit:10;" d="M 10.683594 42.328125 C 18.8125 32.5 30.445312 26.21875 43.125 24.820312 "/>
<path style=" stroke:none;fill-rule:nonzero;fill:rgb(0%,0%,0%);fill-opacity:1;" d="M 36.410156 32.621094 C 36.410156 32.847656 36.074219 32.847656 36.074219 32.621094 C 36.074219 32.398438 36.410156 32.398438 36.410156 32.621094 "/>
<path style=" stroke:none;fill-rule:nonzero;fill:rgb(0%,0%,0%);fill-opacity:1;" d="M 29.71875 31.234375 C 29.71875 31.457031 29.378906 31.457031 29.378906 31.234375 C 29.378906 31.007812 29.71875 31.007812 29.71875 31.234375 "/>
<path style="fill:none;stroke-width:0.1125;stroke-linecap:butt;stroke-linejoin:miter;stroke:rgb(0%,0%,0%);stroke-opacity:1;stroke-miterlimit:10;" d="M 29.546875 31.234375 C 31.816406 31.503906 34.054688 31.964844 36.242188 32.621094 "/>
<path style=" stroke:none;fill-rule:nonzero;fill:rgb(0%,0%,0%);fill-opacity:1;" d="M 42.4375 36.332031 C 42.4375 36.558594 42.101562 36.558594 42.101562 36.332031 C 42.101562 36.109375 42.4375 36.109375 42.4375 36.332031 "/>
<path style=" stroke:none;fill-rule:nonzero;fill:rgb(0%,0%,0%);fill-opacity:1;" d="M 35.65625 32.484375 C 35.65625 32.707031 35.316406 32.707031 35.316406 32.484375 C 35.316406 32.257812 35.65625 32.257812 35.65625 32.484375 "/>
<path style="fill:none;stroke-width:0.1125;stroke-linecap:butt;stroke-linejoin:miter;stroke:rgb(0%,0%,0%);stroke-opacity:1;stroke-miterlimit:10;" d="M 35.488281 32.484375 C 37.800781 33.667969 40.066406 34.953125 42.269531 36.332031 "/>
<path style=" stroke:none;fill-rule:nonzero;fill:rgb(0%,0%,0%);fill-opacity:1;" d="M 17.320312 5.140625 C 17.320312 5.367188 16.980469 5.367188 16.980469 5.140625 C 16.980469 4.914062 17.320312 4.914062 17.320312 5.140625 "/>
<path style=" stroke:none;fill-rule:nonzero;fill:rgb(0%,0%,0%);fill-opacity:1;" d="M 21.761719 18.519531 C 21.761719 18.746094 21.425781 18.746094 21.425781 18.519531 C 21.425781 18.296875 21.761719 18.296875 21.761719 18.519531 "/>
<path style="fill:none;stroke-width:0.1125;stroke-linecap:butt;stroke-linejoin:miter;stroke:rgb(0%,0%,0%);stroke-opacity:1;stroke-miterlimit:10;" d="M 17.152344 5.140625 C 18.84375 9.527344 20.328125 13.992188 21.59375 18.519531 "/>
<path style=" stroke:none;fill-rule:nonzero;fill:rgb(0%,0%,0%);fill-opacity:1;" d="M 38.8125 24.992188 C 38.8125 25.21875 38.476562 25.21875 38.476562 24.992188 C 38.476562 24.769531 38.8125 24.769531 38.8125 24.992188 "/>
<path style=" stroke:none;fill-rule:nonzero;fill:rgb(0%,0%,0%);fill-opacity:1;" d="M 28.539062 17.707031 C 28.539062 17.933594 28.203125 17.933594 28.203125 17.707031 C 28.203125 17.480469 28.539062 17.480469 28.539062 17.707031 "/>
<path style="fill:none;stroke-width:0.1125;stroke-linecap:butt;stroke-linejoin:miter;stroke:rgb(0%,0%,0%);stroke-opacity:1;stroke-miterlimit:10;" d="M 38.644531 24.992188 C 34.742188 23.324219 31.238281 20.839844 28.371094 17.707031 "/>
<path style=" stroke:none;fill-rule:nonzero;fill:rgb(0%,0%,0%);fill-opacity:1;" d="M 31.296875 13.992188 C 31.296875 14.21875 30.957031 14.21875 30.957031 13.992188 C 30.957031 13.769531 31.296875 13.769531 31.296875 13.992188 "/>
<path style=" stroke:none;fill-rule:nonzero;fill:rgb(0%,0%,0%);fill-opacity:1;" d="M 31.039062 37.441406 C 31.039062 37.664062 30.703125 37.664062 30.703125 37.441406 C 30.703125 37.214844 31.039062 37.214844 31.039062 37.441406 "/>
<path style="fill:none;stroke-width:0.1125;stroke-linecap:butt;stroke-linejoin:miter;stroke:rgb(0%,0%,0%);stroke-opacity:1;stroke-miterlimit:10;" d="M 30.871094 37.441406 C 29.164062 29.707031 29.253906 21.6875 31.128906 13.992188 "/>
<path style=" stroke:none;fill-rule:nonzero;fill:rgb(0%,0%,0%);fill-opacity:1;" d="M 12.484375 14.367188 C 12.484375 14.59375 12.148438 14.59375 12.148438 14.367188 C 12.148438 14.140625 12.484375 14.140625 12.484375 14.367188 "/>
<path style=" stroke:none;fill-rule:nonzero;fill:rgb(0%,0%,0%);fill-opacity:1;" d="M 36.179688 30.386719 C 36.179688 30.609375 35.84375 30.609375 35.84375 30.386719 C 35.84375 30.160156 36.179688 30.160156 36.179688 30.386719 "/>
<path style="fill:none;stroke-width:0.1125;stroke-linecap:butt;stroke-linejoin:miter;stroke:rgb(0%,0%,0%);stroke-opacity:1;stroke-miterlimit:10;" d="M 36.011719 30.386719 C 27.753906 25.597656 19.835938 20.246094 12.316406 14.367188 "/>
<path style=" stroke:none;fill-rule:nonzero;fill:rgb(0%,0%,0%);fill-opacity:1;" d="M 6.007812 21.1875 C 6.007812 21.414062 5.671875 21.414062 5.671875 21.1875 C 5.671875 20.960938 6.007812 20.960938 6.007812 21.1875 "/>
<path style=" stroke:none;fill-rule:nonzero;fill:rgb(0%,0%,0%);fill-opacity:1;" d="M 21.972656 17.902344 C 21.972656 18.125 21.632812 18.125 21.632812 17.902344 C 21.632812 17.675781 21.972656 17.675781 21.972656 17.902344 "/>
<path style="fill:none;stroke-width:0.1125;stroke-linecap:butt;stroke-linejoin:miter;stroke:rgb(0%,0%,0%);stroke-opacity:1;stroke-miterlimit:10;" d="M 21.804688 17.902344 C 16.910156 20.515625 11.367188 21.660156 5.839844 21.1875 "/>
<path style=" stroke:none;fill-rule:nonzero;fill:rgb(0%,0%,0%);fill-opacity:1;" d="M 14.675781 28 C 14.675781 28.222656 14.339844 28.222656 14.339844 28 C 14.339844 27.773438 14.675781 27.773438 14.675781 28 "/>
<path style=" stroke:none;fill-rule:nonzero;fill:rgb(0%,0%,0%);fill-opacity:1;" d="M 44.121094 28.707031 C 44.121094 28.933594 43.78125 28.933594 43.78125 28.707031 C 43.78125 28.484375 44.121094 28.484375 44.121094 28.707031 "/>
<path style="fill:none;stroke-width:0.1125;stroke-linecap:butt;stroke-linejoin:miter;stroke:rgb(0%,0%,0%);stroke-opacity:1;stroke-miterlimit:10;" d="M 14.507812 28 C 24.308594 26.886719 34.214844 27.125 43.949219 28.707031 "/>
<path style=" stroke:none;fill-rule:nonzero;fill:rgb(0%,0%,0%);fill-opacity:1;" d="M 32.359375 29.042969 C 32.359375 29.265625 32.019531 29.265625 32.019531 29.042969 C 32.019531 28.816406 32.359375 28.816406 32.359375 29.042969 "/>
<path style=" stroke:none;fill-rule:nonzero;fill:rgb(0%,0%,0%);fill-opacity:1;" d="M 21.679688 10.722656 C 21.679688 10.945312 21.34375 10.945312 21.34375 10.722656 C 21.34375 10.496094 21.679688 10.496094 21.679688 10.722656 "/>
<path style="fill:none;stroke-width:0.1125;stroke-linecap:butt;stroke-linejoin:miter;stroke:rgb(0%,0%,0%);stroke-opacity:1;stroke-miterlimit:10;" d="M 32.191406 29.042969 C 27.738281 23.5 24.136719 17.328125 21.511719 10.722656 "/>
<path style=" stroke:none;fill-rule:nonzero;fill:rgb(0%,0%,0%);fill-opacity:1;" d="M 17.492188 10.144531 C 17.492188 10.371094 17.152344 10.371094 17.152344 10.144531 C 17.152344 9.921875 17.492188 9.921875 17.492188 10.144531 "/>
<path style=" stroke:none;fill-rule:nonzero;fill:rgb(0%,0%,0%);fill-opacity:1;" d="M 34.789062 16.535156 C 34.789062 16.761719 34.453125 16.761719 34.453125 16.535156 C 34.453125 16.3125 34.789062 16.3125 34.789062 16.535156 "/>
<path style="fill:none;stroke-width:0.1125;stroke-linecap:butt;stroke-linejoin:miter;stroke:rgb(0%,0%,0%);stroke-opacity:1;stroke-miterlimit:10;" d="M 34.621094 16.535156 C 28.199219 17.019531 21.886719 14.6875 17.324219 10.144531 "/>
<path style=" stroke:none;fill-rule:nonzero;fill:rgb(0%,0%,0%);fill-opacity:1;" d="M 13.183594 14.570312 C 13.183594 14.792969 12.847656 14.792969 12.847656 14.570312 C 12.847656 14.34375 13.183594 14.34375 13.183594 14.570312 "/>
<path style=" stroke:none;fill-rule:nonzero;fill:rgb(0%,0%,0%);fill-opacity:1;" d="M 6.1875 28.171875 C 6.1875 28.398438 5.847656 28.398438 5.847656 28.171875 C 5.847656 27.945312 6.1875 27.945312 6.1875 28.171875 "/>
<path style="fill:none;stroke-width:0.1125;stroke-linecap:butt;stroke-linejoin:miter;stroke:rgb(0%,0%,0%);stroke-opacity:1;stroke-miterlimit:10;" d="M 13.015625 14.570312 C 13.992188 20.160156 11.132812 25.714844 6.019531 28.171875 "/>
<path style=" stroke:none;fill-rule:nonzero;fill:rgb(0%,0%,0%);fill-opacity:1;" d="M 32.039062 10.355469 C 32.039062 10.578125 31.699219 10.578125 31.699219 10.355469 C 31.699219 10.128906 32.039062 10.128906 32.039062 10.355469 "/>
<path style=" stroke:none;fill-rule:nonzero;fill:rgb(0%,0%,0%);fill-opacity:1;" d="M 33.691406 13.523438 C 33.691406 13.75 33.351562 13.75 33.351562 13.523438 C 33.351562 13.300781 33.691406 13.300781 33.691406 13.523438 "/>
<path style="fill:none;stroke-width:0.1125;stroke-linecap:butt;stroke-linejoin:miter;stroke:rgb(0%,0%,0%);stroke-opacity:1;stroke-miterlimit:10;" d="M 33.523438 13.523438 C 32.800781 12.566406 32.246094 11.492188 31.871094 10.355469 "/>
<path style=" stroke:none;fill-rule:nonzero;fill:rgb(0%,0%,0%);fill-opacity:1;" d="M 12.527344 15.375 C 12.527344 15.601562 12.191406 15.601562 12.191406 15.375 C 12.191406 15.148438 12.527344 15.148438 12.527344 15.375 "/>
<path style=" stroke:none;fill-rule:nonzero;fill:rgb(0%,0%,0%);fill-opacity:1;" d="M 15.199219 41.851562 C 15.199219 42.078125 14.863281 42.078125 14.863281 41.851562 C 14.863281 41.628906 15.199219 41.628906 15.199219 41.851562 "/>
<path style="fill:none;stroke-width:0.1125;stroke-linecap:butt;stroke-linejoin:miter;stroke:rgb(0%,0%,0%);stroke-opacity:1;stroke-miterlimit:10;" d="M 12.359375 15.375 C 17.863281 23.109375 18.878906 33.175781 15.03125 41.851562 "/>
<path style=" stroke:none;fill-rule:nonzero;fill:rgb(0%,0%,0%);fill-opacity:1;" d="M 24.316406 7.691406 C 24.316406 7.914062 23.976562 7.914062 23.976562 7.691406 C 23.976562 7.464844 24.316406 7.464844 24.316406 7.691406 "/>
<path style=" stroke:none;fill-rule:nonzero;fill:rgb(0%,0%,0%);fill-opacity:1;" d="M 44.394531 14.640625 C 44.394531 14.863281 44.058594 14.863281 44.058594 14.640625 C 44.058594 14.414062 44.394531 14.414062 44.394531 14.640625 "/>
<path style="fill:none;stroke-width:0.1125;stroke-linecap:butt;stroke-linejoin:miter;stroke:rgb(0%,0%,0%);stroke-opacity:1;stroke-miterlimit:10;" d="M 44.226562 14.640625 C 36.761719 18.242188 27.789062 15.136719 24.144531 7.691406 "/>
<path style=" stroke:none;fill-rule:nonzero;fill:rgb(0%,0%,0%);fill-opacity:1;" d="M 13.941406 20.519531 C 13.941406 20.746094 13.605469 20.746094 13.605469 20.519531 C 13.605469 20.296875 13.941406 20.296875 13.941406 20.519531 "/>
<path style=" stroke:none;fill-rule:nonzero;fill:rgb(0%,0%,0%);fill-opacity:1;" d="M 41.867188 36.355469 C 41.867188 36.582031 41.527344 36.582031 41.527344 36.355469 C 41.527344 36.128906 41.867188 36.128906 41.867188 36.355469 "/>
<path style="fill:none;stroke-width:0.1125;stroke-linecap:butt;stroke-linejoin:miter;stroke:rgb(0%,0%,0%);stroke-opacity:1;stroke-miterlimit:10;" d="M 13.773438 20.519531 C 23.441406 25.132812 32.773438 30.425781 41.695312 36.355469 "/>
<path style=" stroke:none;fill-rule:nonzero;fill:rgb(0%,0%,0%);fill-opacity:1;" d="M 15.285156 30.378906 C 15.285156 30.605469 14.945312 30.605469 14.945312 30.378906 C 14.945312 30.15625 15.285156 30.15625 15.285156 30.378906 "/>
<path style=" stroke:none;fill-rule:nonzero;fill:rgb(0%,0%,0%);fill-opacity:1;" d="M 6.503906 33.453125 C 6.503906 33.679688 6.167969 33.679688 6.167969 33.453125 C 6.167969 33.230469 6.503906 33.230469 6.503906 33.453125 "/>
<path style="fill:none;stroke-width:0.1125;stroke-linecap:butt;stroke-linejoin:miter;stroke:rgb(0%,0%,0%);stroke-opacity:1;stroke-miterlimit:10;" d="M 6.335938 33.453125 C 9.199219 32.253906 12.128906 31.226562 15.113281 30.378906 "/>
<path style=" stroke:none;fill-rule:nonzero;fill:rgb(0%,0%,0%);fill-opacity:1;" d="M 40.289062 24.050781 C 40.289062 24.277344 39.953125 24.277344 39.953125 24.050781 C 39.953125 23.828125 40.289062 23.828125 40.289062 24.050781 "/>
<path style=" stroke:none;fill-rule:nonzero;fill:rgb(0%,0%,0%);fill-opacity:1;" d="M 21.273438 26.054688 C 21.273438 26.277344 20.933594 26.277344 20.933594 26.054688 C 20.933594 25.828125 21.273438 25.828125 21.273438 26.054688 "/>
<path style="fill:none;stroke-width:0.1125;stroke-linecap:butt;stroke-linejoin:miter;stroke:rgb(0%,0%,0%);stroke-opacity:1;stroke-miterlimit:10;" d="M 21.101562 26.054688 C 27.425781 25.25 33.769531 24.582031 40.121094 24.050781 "/>
<path style=" stroke:none;fill-rule:nonzero;fill:rgb(0%,0%,0%);fill-opacity:1;" d="M 27.882812 20.671875 C 27.882812 20.894531 27.546875 20.894531 27.546875 20.671875 C 27.546875 20.445312 27.882812 20.445312 27.882812 20.671875 "/>
<path style=" stroke:none;fill-rule:nonzero;fill:rgb(0%,0%,0%);fill-opacity:1;" d="M 26.898438 11.960938 C 26.898438 12.183594 26.5625 12.183594 26.5625 11.960938 C 26.5625 11.734375 26.898438 11.734375 26.898438 11.960938 "/>
<path style="fill:none;stroke-width:0.1125;stroke-linecap:butt;stroke-linejoin:miter;stroke:rgb(0%,0%,0%);stroke-opacity:1;stroke-miterlimit:10;" d="M 27.714844 20.671875 C 27.207031 17.789062 26.875 14.882812 26.730469 11.960938 "/>
<path style=" stroke:none;fill-rule:nonzero;fill:rgb(0%,0%,0%);fill-opacity:1;" d="M 28.34375 34.015625 C 28.34375 34.238281 28.003906 34.238281 28.003906 34.015625 C 28.003906 33.789062 28.34375 33.789062 28.34375 34.015625 "/>
<path style=" stroke:none;fill-rule:nonzero;fill:rgb(0%,0%,0%);fill-opacity:1;" d="M 32.628906 15.894531 C 32.628906 16.121094 32.289062 16.121094 32.289062 15.894531 C 32.289062 15.667969 32.628906 15.667969 32.628906 15.894531 "/>
<path style="fill:none;stroke-width:0.1125;stroke-linecap:butt;stroke-linejoin:miter;stroke:rgb(0%,0%,0%);stroke-opacity:1;stroke-miterlimit:10;" d="M 28.171875 34.015625 C 28.570312 27.777344 30.019531 21.648438 32.460938 15.894531 "/>
<path style=" stroke:none;fill-rule:nonzero;fill:rgb(0%,0%,0%);fill-opacity:1;" d="M 43.597656 22.125 C 43.597656 22.351562 43.257812 22.351562 43.257812 22.125 C 43.257812 21.902344 43.597656 21.902344 43.597656 22.125 "/>
<path style=" stroke:none;fill-rule:nonzero;fill:rgb(0%,0%,0%);fill-opacity:1;" d="M 31.398438 26.152344 C 31.398438 26.378906 31.0625 26.378906 31.0625 26.152344 C 31.0625 25.925781 31.398438 25.925781 31.398438 26.152344 "/>
<path style="fill:none;stroke-width:0.1125;stroke-linecap:butt;stroke-linejoin:miter;stroke:rgb(0%,0%,0%);stroke-opacity:1;stroke-miterlimit:10;" d="M 31.230469 26.152344 C 35.152344 24.410156 39.238281 23.0625 43.429688 22.125 "/>
<path style=" stroke:none;fill-rule:nonzero;fill:rgb(0%,0%,0%);fill-opacity:1;" d="M 20.5625 44.035156 C 20.5625 44.261719 20.226562 44.261719 20.226562 44.035156 C 20.226562 43.8125 20.5625 43.8125 20.5625 44.035156 "/>
<path style=" stroke:none;fill-rule:nonzero;fill:rgb(0%,0%,0%);fill-opacity:1;" d="M 18.378906 38.265625 C 18.378906 38.488281 18.039062 38.488281 18.039062 38.265625 C 18.039062 38.039062 18.378906 38.039062 18.378906 38.265625 "/>
<path style="fill:none;stroke-width:0.1125;stroke-linecap:butt;stroke-linejoin:miter;stroke:rgb(0%,0%,0%);stroke-opacity:1;stroke-miterlimit:10;" d="M 18.207031 38.265625 C 19.496094 39.925781 20.257812 41.9375 20.394531 44.035156 "/>
<path style=" stroke:none;fill-rule:nonzero;fill:rgb(0%,0%,0%);fill-opacity:1;" d="M 38.566406 25.359375 C 38.566406 25.582031 38.230469 25.582031 38.230469 25.359375 C 38.230469 25.132812 38.566406 25.132812 38.566406 25.359375 "/>
<path style=" stroke:none;fill-rule:nonzero;fill:rgb(0%,0%,0%);fill-opacity:1;" d="M 23.152344 27.457031 C 23.152344 27.683594 22.816406 27.683594 22.816406 27.457031 C 22.816406 27.234375 23.152344 27.234375 23.152344 27.457031 "/>
<path style="fill:none;stroke-width:0.1125;stroke-linecap:butt;stroke-linejoin:miter;stroke:rgb(0%,0%,0%);stroke-opacity:1;stroke-miterlimit:10;" d="M 22.984375 27.457031 C 28.070312 26.433594 33.222656 25.734375 38.398438 25.359375 "/>
<path style=" stroke:none;fill-rule:nonzero;fill:rgb(0%,0%,0%);fill-opacity:1;" d="M 7.96875 26.976562 C 7.96875 27.203125 7.632812 27.203125 7.632812 26.976562 C 7.632812 26.753906 7.96875 26.753906 7.96875 26.976562 "/>
<path style=" stroke:none;fill-rule:nonzero;fill:rgb(0%,0%,0%);fill-opacity:1;" d="M 13.292969 31.898438 C 13.292969 32.125 12.953125 32.125 12.953125 31.898438 C 12.953125 31.675781 13.292969 31.675781 13.292969 31.898438 "/>
<path style="fill:none;stroke-width:0.1125;stroke-linecap:butt;stroke-linejoin:miter;stroke:rgb(0%,0%,0%);stroke-opacity:1;stroke-miterlimit:10;" d="M 7.800781 26.976562 C 10.054688 28.003906 11.921875 29.730469 13.121094 31.898438 "/>
<path style=" stroke:none;fill-rule:nonzero;fill:rgb(0%,0%,0%);fill-opacity:1;" d="M 27.980469 36.738281 C 27.980469 36.960938 27.640625 36.960938 27.640625 36.738281 C 27.640625 36.511719 27.980469 36.511719 27.980469 36.738281 "/>
<path style=" stroke:none;fill-rule:nonzero;fill:rgb(0%,0%,0%);fill-opacity:1;" d="M 15.832031 27.640625 C 15.832031 27.867188 15.496094 27.867188 15.496094 27.640625 C 15.496094 27.417969 15.832031 27.417969 15.832031 27.640625 "/>
<path style="fill:none;stroke-width:0.1125;stroke-linecap:butt;stroke-linejoin:miter;stroke:rgb(0%,0%,0%);stroke-opacity:1;stroke-miterlimit:10;" d="M 15.664062 27.640625 C 20.355469 29.699219 24.511719 32.8125 27.8125 36.738281 "/>
<path style=" stroke:none;fill-rule:nonzero;fill:rgb(0%,0%,0%);fill-opacity:1;" d="M 47.410156 23.070312 C 47.410156 23.292969 47.074219 23.292969 47.074219 23.070312 C 47.074219 22.84375 47.410156 22.84375 47.410156 23.070312 "/>
<path style=" stroke:none;fill-rule:nonzero;fill:rgb(0%,0%,0%);fill-opacity:1;" d="M 32.753906 30.355469 C 32.753906 30.578125 32.414062 30.578125 32.414062 30.355469 C 32.414062 30.128906 32.753906 30.128906 32.753906 30.355469 "/>
<path style="fill:none;stroke-width:0.1125;stroke-linecap:butt;stroke-linejoin:miter;stroke:rgb(0%,0%,0%);stroke-opacity:1;stroke-miterlimit:10;" d="M 32.582031 30.355469 C 36.402344 26.195312 41.621094 23.601562 47.242188 23.070312 "/>
<path style=" stroke:none;fill-rule:nonzero;fill:rgb(0%,0%,0%);fill-opacity:1;" d="M 28.992188 7.78125 C 28.992188 8.007812 28.652344 8.007812 28.652344 7.78125 C 28.652344 7.558594 28.992188 7.558594 28.992188 7.78125 "/>
<path style=" stroke:none;fill-rule:nonzero;fill:rgb(0%,0%,0%);fill-opacity:1;" d="M 23.269531 16.238281 C 23.269531 16.460938 22.933594 16.460938 22.933594 16.238281 C 22.933594 16.011719 23.269531 16.011719 23.269531 16.238281 "/>
<path style="fill:none;stroke-width:0.1125;stroke-linecap:butt;stroke-linejoin:miter;stroke:rgb(0%,0%,0%);stroke-opacity:1;stroke-miterlimit:10;" d="M 28.820312 7.78125 C 27.441406 10.921875 25.503906 13.789062 23.101562 16.238281 "/>
<path style=" stroke:none;fill-rule:nonzero;fill:rgb(0%,0%,0%);fill-opacity:1;" d="M 36.359375 9.074219 C 36.359375 9.300781 36.023438 9.300781 36.023438 9.074219 C 36.023438 8.851562 36.359375 8.851562 36.359375 9.074219 "/>
<path style=" stroke:none;fill-rule:nonzero;fill:rgb(0%,0%,0%);fill-opacity:1;" d="M 32.378906 36.46875 C 32.378906 36.695312 32.039062 36.695312 32.039062 36.46875 C 32.039062 36.242188 32.378906 36.242188 32.378906 36.46875 "/>
<path style="fill:none;stroke-width:0.1125;stroke-linecap:butt;stroke-linejoin:miter;stroke:rgb(0%,0%,0%);stroke-opacity:1;stroke-miterlimit:10;" d="M 32.210938 36.46875 C 29.972656 27.164062 31.398438 17.355469 36.191406 9.074219 "/>
<path style=" stroke:none;fill-rule:nonzero;fill:rgb(0%,0%,0%);fill-opacity:1;" d="M 30.019531 12.179688 C 30.019531 12.40625 29.683594 12.40625 29.683594 12.179688 C 29.683594 11.953125 30.019531 11.953125 30.019531 12.179688 "/>
<path style=" stroke:none;fill-rule:nonzero;fill:rgb(0%,0%,0%);fill-opacity:1;" d="M 5.023438 27.457031 C 5.023438 27.683594 4.683594 27.683594 4.683594 27.457031 C 4.683594 27.234375 5.023438 27.234375 5.023438 27.457031 "/>
<path style="fill:none;stroke-width:0.1125;stroke-linecap:butt;stroke-linejoin:miter;stroke:rgb(0%,0%,0%);stroke-opacity:1;stroke-miterlimit:10;" d="M 29.851562 12.179688 C 23.714844 20.210938 14.800781 25.660156 4.855469 27.457031 "/>
<path style=" stroke:none;fill-rule:nonzero;fill:rgb(0%,0%,0%);fill-opacity:1;" d="M 41.371094 24.277344 C 41.371094 24.503906 41.035156 24.503906 41.035156 24.277344 C 41.035156 24.054688 41.371094 24.054688 41.371094 24.277344 "/>
<path style=" stroke:none;fill-rule:nonzero;fill:rgb(0%,0%,0%);fill-opacity:1;" d="M 43.445312 24.917969 C 43.445312 25.140625 43.105469 25.140625 43.105469 24.917969 C 43.105469 24.691406 43.445312 24.691406 43.445312 24.917969 "/>
<path style="fill:none;stroke-width:0.1125;stroke-linecap:butt;stroke-linejoin:miter;stroke:rgb(0%,0%,0%);stroke-opacity:1;stroke-miterlimit:10;" d="M 43.277344 24.917969 C 42.574219 24.742188 41.882812 24.53125 41.203125 24.277344 "/>
<path style=" stroke:none;fill-rule:nonzero;fill:rgb(0%,0%,0%);fill-opacity:1;" d="M 18.558594 37.617188 C 18.558594 37.839844 18.21875 37.839844 18.21875 37.617188 C 18.21875 37.390625 18.558594 37.390625 18.558594 37.617188 "/>
<path style=" stroke:none;fill-rule:nonzero;fill:rgb(0%,0%,0%);fill-opacity:1;" d="M 42.523438 37.722656 C 42.523438 37.945312 42.183594 37.945312 42.183594 37.722656 C 42.183594 37.496094 42.523438 37.496094 42.523438 37.722656 "/>
<path style="fill:none;stroke-width:0.1125;stroke-linecap:butt;stroke-linejoin:miter;stroke:rgb(0%,0%,0%);stroke-opacity:1;stroke-miterlimit:10;" d="M 18.390625 37.617188 C 25.683594 32.863281 35.101562 32.90625 42.355469 37.722656 "/>
<path style=" stroke:none;fill-rule:nonzero;fill:rgb(0%,0%,0%);fill-opacity:1;" d="M 35.417969 12.578125 C 35.417969 12.804688 35.078125 12.804688 35.078125 12.578125 C 35.078125 12.355469 35.417969 12.355469 35.417969 12.578125 "/>
<path style=" stroke:none;fill-rule:nonzero;fill:rgb(0%,0%,0%);fill-opacity:1;" d="M 18.851562 37.535156 C 18.851562 37.757812 18.511719 37.757812 18.511719 37.535156 C 18.511719 37.308594 18.851562 37.308594 18.851562 37.535156 "/>
<path style="fill:none;stroke-width:0.1125;stroke-linecap:butt;stroke-linejoin:miter;stroke:rgb(0%,0%,0%);stroke-opacity:1;stroke-miterlimit:10;" d="M 18.683594 37.535156 C 23.625 28.847656 29.160156 20.507812 35.246094 12.578125 "/>
<path style=" stroke:none;fill-rule:nonzero;fill:rgb(0%,0%,0%);fill-opacity:1;" d="M 14.972656 33.71875 C 14.972656 33.945312 14.632812 33.945312 14.632812 33.71875 C 14.632812 33.496094 14.972656 33.496094 14.972656 33.71875 "/>
<path style=" stroke:none;fill-rule:nonzero;fill:rgb(0%,0%,0%);fill-opacity:1;" d="M 10.445312 38.042969 C 10.445312 38.269531 10.109375 38.269531 10.109375 38.042969 C 10.109375 37.820312 10.445312 37.820312 10.445312 38.042969 "/>
<path style="fill:none;stroke-width:0.1125;stroke-linecap:butt;stroke-linejoin:miter;stroke:rgb(0%,0%,0%);stroke-opacity:1;stroke-miterlimit:10;" d="M 14.804688 33.71875 C 13.320312 35.191406 11.8125 36.632812 10.277344 38.042969 "/>
<path style=" stroke:none;fill-rule:nonzero;fill:rgb(0%,0%,0%);fill-opacity:1;" d="M 20.160156 19.828125 C 20.160156 20.054688 19.824219 20.054688 19.824219 19.828125 C 19.824219 19.605469 20.160156 19.605469 20.160156 19.828125 "/>
<path style=" stroke:none;fill-rule:nonzero;fill:rgb(0%,0%,0%);fill-opacity:1;" d="M 14.039062 23 C 14.039062 23.226562 13.703125 23.226562 13.703125 23 C 13.703125 22.777344 14.039062 22.777344 14.039062 23 "/>
<path style="fill:none;stroke-width:0.1125;stroke-linecap:butt;stroke-linejoin:miter;stroke:rgb(0%,0%,0%);stroke-opacity:1;stroke-miterlimit:10;" d="M 19.992188 19.828125 C 18.070312 21.101562 16.019531 22.167969 13.871094 23 "/>
<path style=" stroke:none;fill-rule:nonzero;fill:rgb(0%,0%,0%);fill-opacity:1;" d="M 39.023438 16.753906 C 39.023438 16.980469 38.683594 16.980469 38.683594 16.753906 C 38.683594 16.53125 39.023438 16.53125 39.023438 16.753906 "/>
<path style=" stroke:none;fill-rule:nonzero;fill:rgb(0%,0%,0%);fill-opacity:1;" d="M 17.859375 41.636719 C 17.859375 41.859375 17.519531 41.859375 17.519531 41.636719 C 17.519531 41.410156 17.859375 41.410156 17.859375 41.636719 "/>
<path style="fill:none;stroke-width:0.1125;stroke-linecap:butt;stroke-linejoin:miter;stroke:rgb(0%,0%,0%);stroke-opacity:1;stroke-miterlimit:10;" d="M 17.691406 41.636719 C 22.785156 31.855469 30.019531 23.351562 38.855469 16.753906 "/>
<path style=" stroke:none;fill-rule:nonzero;fill:rgb(0%,0%,0%);fill-opacity:1;" d="M 27.769531 8.371094 C 27.769531 8.597656 27.433594 8.597656 27.433594 8.371094 C 27.433594 8.148438 27.769531 8.148438 27.769531 8.371094 "/>
<path style=" stroke:none;fill-rule:nonzero;fill:rgb(0%,0%,0%);fill-opacity:1;" d="M 43.753906 22.914062 C 43.753906 23.140625 43.417969 23.140625 43.417969 22.914062 C 43.417969 22.6875 43.753906 22.6875 43.753906 22.914062 "/>
<path style="fill:none;stroke-width:0.1125;stroke-linecap:butt;stroke-linejoin:miter;stroke:rgb(0%,0%,0%);stroke-opacity:1;stroke-miterlimit:10;" d="M 43.585938 22.914062 C 35.691406 21.996094 29.261719 16.144531 27.601562 8.371094 "/>
</g>
</svg>
