<?xml version="1.0" encoding="UTF-8"?>
<svg xmlns="http://www.w3.org/2000/svg" xmlns:xlink="http://www.w3.org/1999/xlink" width="100" height="100" viewBox="0 0 100 100">
<rect x="-10" y="-10" width="120" height="120" fill="rgb(100%, 100%, 100%)" fill-opacity="1"/>
<path fill="none" stroke-width="0.225" stroke-linecap="butt" stroke-linejoin="miter" stroke="rgb(0%, 0%, 0%)" stroke-opacity="1" stroke-miterlimit="10" d="M 95 50 C 95 74.851562 74.851562 95 50 95 C 25.148438 95 5 74.851562 5 50 C 5 25.148438 25.148438 5 50 5 C 74.851562 5 95 25.148438 95 50 "/>
<path fill-rule="nonzero" fill="rgb(0%, 0%, 0%)" fill-opacity="1" d="M 50.335938 50 C 50.335938 50.449219 49.664062 50.449219 49.664062 50 C 49.664062 49.550781 50.335938 49.550781 50.335938 50 "/>
<path fill-rule="nonzero" fill="rgb(0%, 0%, 0%)" fill-opacity="1" d="M 12.765625 64.058594 C 12.765625 64.507812 12.089844 64.507812 12.089844 64.058594 C 12.089844 63.609375 12.765625 63.609375 12.765625 64.058594 "/>
<path fill-rule="nonzero" fill="rgb(0%, 0%, 0%)" fill-opacity="1" d="M 67.574219 55.640625 C 67.574219 56.089844 66.898438 56.089844 66.898438 55.640625 C 66.898438 55.191406 67.574219 55.191406 67.574219 55.640625 "/>
<path fill="none" stroke-width="0.225" stroke-linecap="butt" stroke-linejoin="miter" stroke="rgb(0%, 0%, 0%)" stroke-opacity="1" stroke-miterlimit="10" d="M 12.425781 64.058594 C 30.070312 58.097656 48.617188 55.25 67.234375 55.640625 "/>
<path fill-rule="nonzero" fill="rgb(0%, 0%, 0%)" fill-opacity="1" d="M 35.3125 10.417969 C 35.3125 10.867188 34.636719 10.867188 34.636719 10.417969 C 34.636719 9.964844 35.3125 9.964844 35.3125 10.417969 "/>
<path fill-rule="nonzero" fill="rgb(0%, 0%, 0%)" fill-opacity="1" d="M 82.285156 47.164062 C 82.285156 47.613281 81.613281 47.613281 81.613281 47.164062 C 81.613281 46.714844 82.285156 46.714844 82.285156 47.164062 "/>
<path fill="none" stroke-width="0.225" stroke-linecap="butt" stroke-linejoin="miter" stroke="rgb(0%, 0%, 0%)" stroke-opacity="1" stroke-miterlimit="10" d="M 81.949219 47.164062 C 61.054688 43.710938 43.355469 29.863281 34.972656 10.417969 "/>
<path fill-rule="nonzero" fill="rgb(0%, 0%, 0%)" fill-opacity="1" d="M 88.101562 60.570312 C 88.101562 61.023438 87.425781 61.023438 87.425781 60.570312 C 87.425781 60.121094 88.101562 60.121094 88.101562 60.570312 "/>
<path fill-rule="nonzero" fill="rgb(0%, 0%, 0%)" fill-opacity="1" d="M 23.554688 75.886719 C 23.554688 76.335938 22.878906 76.335938 22.878906 75.886719 C 22.878906 75.4375 23.554688 75.4375 23.554688 75.886719 "/>
<path fill="none" stroke-width="0.225" stroke-linecap="butt" stroke-linejoin="miter" stroke="rgb(0%, 0%, 0%)" stroke-opacity="1" stroke-miterlimit="10" d="M 23.214844 75.886719 C 41.496094 61.667969 65.046875 56.082031 87.765625 60.570312 "/>
<path fill-rule="nonzero" fill="rgb(0%, 0%, 0%)" fill-opacity="1" d="M 73.613281 53.871094 C 73.613281 54.320312 72.9375 54.320312 72.9375 53.871094 C 72.9375 53.421875 73.613281 53.421875 73.613281 53.871094 "/>
<path fill-rule="nonzero" fill="rgb(0%, 0%, 0%)" fill-opacity="1" d="M 61.925781 7.503906 C 61.925781 7.957031 61.25 7.957031 61.25 7.503906 C 61.25 7.054688 61.925781 7.054688 61.925781 7.503906 "/>
<path fill="none" stroke-width="0.225" stroke-linecap="butt" stroke-linejoin="miter" stroke="rgb(0%, 0%, 0%)" stroke-opacity="1" stroke-miterlimit="10" d="M 73.273438 53.871094 C 61.832031 41.363281 57.441406 23.941406 61.585938 7.503906 "/>
<path fill-rule="nonzero" fill="rgb(0%, 0%, 0%)" fill-opacity="1" d="M 69.59375 12.4375 C 69.59375 12.886719 68.917969 12.886719 68.917969 12.4375 C 68.917969 11.988281 69.59375 11.988281 69.59375 12.4375 "/>
<path fill-rule="nonzero" fill="rgb(0%, 0%, 0%)" fill-opacity="1" d="M 88.003906 29.390625 C 88.003906 29.839844 87.328125 29.839844 87.328125 29.390625 C 87.328125 28.9375 88.003906 28.9375 88.003906 29.390625 "/>
<path fill="none" stroke-width="0.225" stroke-linecap="butt" stroke-linejoin="miter" stroke="rgb(0%, 0%, 0%)" stroke-opacity="1" stroke-miterlimit="10" d="M 87.667969 29.390625 C 82.71875 31.195312 77.171875 30.089844 73.296875 26.519531 C 69.421875 22.953125 67.863281 17.519531 69.253906 12.4375 "/>
<path fill-rule="nonzero" fill="rgb(0%, 0%, 0%)" fill-opacity="1" d="M 45.25 54.082031 C 45.25 54.535156 44.574219 54.535156 44.574219 54.082031 C 44.574219 53.632812 45.25 53.632812 45.25 54.082031 "/>
<path fill-rule="nonzero" fill="rgb(0%, 0%, 0%)" fill-opacity="1" d="M 13.148438 29.289062 C 13.148438 29.738281 12.472656 29.738281 12.472656 29.289062 C 12.472656 28.839844 13.148438 28.839844 13.148438 29.289062 "/>
<path fill="none" stroke-width="0.225" stroke-linecap="butt" stroke-linejoin="miter" stroke="rgb(0%, 0%, 0%)" stroke-opacity="1" stroke-miterlimit="10" d="M 12.8125 29.289062 C 24.566406 36.089844 35.363281 44.429688 44.914062 54.082031 "/>
<path fill-rule="nonzero" fill="rgb(0%, 0%, 0%)" fill-opacity="1" d="M 65.085938 36.894531 C 65.085938 37.34375 64.410156 37.34375 64.410156 36.894531 C 64.410156 36.441406 65.085938 36.441406 65.085938 36.894531 "/>
<path fill-rule="nonzero" fill="rgb(0%, 0%, 0%)" fill-opacity="1" d="M 42.597656 84.132812 C 42.597656 84.585938 41.921875 84.585938 41.921875 84.132812 C 41.921875 83.683594 42.597656 83.683594 42.597656 84.132812 "/>
<path fill="none" stroke-width="0.225" stroke-linecap="butt" stroke-linejoin="miter" stroke="rgb(0%, 0%, 0%)" stroke-opacity="1" stroke-miterlimit="10" d="M 42.261719 84.132812 C 47.277344 67.324219 54.863281 51.386719 64.75 36.894531 "/>
<path fill-rule="nonzero" fill="rgb(0%, 0%, 0%)" fill-opacity="1" d="M 64.542969 77.078125 C 64.542969 77.527344 63.867188 77.527344 63.867188 77.078125 C 63.867188 76.625 64.542969 76.625 64.542969 77.078125 "/>
<path fill-rule="nonzero" fill="rgb(0%, 0%, 0%)" fill-opacity="1" d="M 6.898438 60.234375 C 6.898438 60.683594 6.226562 60.683594 6.226562 60.234375 C 6.226562 59.785156 6.898438 59.785156 6.898438 60.234375 "/>
<path fill="none" stroke-width="0.225" stroke-linecap="butt" stroke-linejoin="miter" stroke="rgb(0%, 0%, 0%)" stroke-opacity="1" stroke-miterlimit="10" d="M 6.5625 60.234375 C 27.398438 55.457031 49.21875 61.835938 64.203125 77.078125 "/>
<path fill-rule="nonzero" fill="rgb(0%, 0%, 0%)" fill-opacity="1" d="M 26.875 78.355469 C 26.875 78.804688 26.199219 78.804688 26.199219 78.355469 C 26.199219 77.90625 26.875 77.90625 26.875 78.355469 "/>
<path fill-rule="nonzero" fill="rgb(0%, 0%, 0%)" fill-opacity="1" d="M 44.734375 85.886719 C 44.734375 86.335938 44.058594 86.335938 44.058594 85.886719 C 44.058594 85.4375 44.734375 85.4375 44.734375 85.886719 "/>
<path fill="none" stroke-width="0.225" stroke-linecap="butt" stroke-linejoin="miter" stroke="rgb(0%, 0%, 0%)" stroke-opacity="1" stroke-miterlimit="10" d="M 26.539062 78.355469 C 33.511719 76.476562 40.875 79.578125 44.394531 85.886719 "/>
<path fill-rule="nonzero" fill="rgb(0%, 0%, 0%)" fill-opacity="1" d="M 77.339844 26.050781 C 77.339844 26.5 76.667969 26.5 76.667969 26.050781 C 76.667969 25.597656 77.339844 25.597656 77.339844 26.050781 "/>
<path fill-rule="nonzero" fill="rgb(0%, 0%, 0%)" fill-opacity="1" d="M 81.367188 31.417969 C 81.367188 31.867188 80.691406 31.867188 80.691406 31.417969 C 80.691406 30.96875 81.367188 30.96875 81.367188 31.417969 "/>
<path fill="none" stroke-width="0.225" stroke-linecap="butt" stroke-linejoin="miter" stroke="rgb(0%, 0%, 0%)" stroke-opacity="1" stroke-miterlimit="10" d="M 81.027344 31.417969 C 79.152344 30.097656 77.742188 28.21875 77.003906 26.050781 "/>
</svg>
