<?xml version="1.0" encoding="UTF-8"?>
<svg xmlns="http://www.w3.org/2000/svg" xmlns:xlink="http://www.w3.org/1999/xlink" width="100" height="100" viewBox="0 0 100 100">
<rect x="-10" y="-10" width="120" height="120" fill="rgb(100%, 100%, 100%)" fill-opacity="1"/>
<path fill="none" stroke-width="0.225" stroke-linecap="butt" stroke-linejoin="miter" stroke="rgb(0%, 0%, 0%)" stroke-opacity="1" stroke-miterlimit="10" d="M 95 50 C 95 74.851562 74.851562 95 50 95 C 25.148438 95 5 74.851562 5 50 C 5 25.148438 25.148438 5 50 5 C 74.851562 5 95 25.148438 95 50 "/>
<path fill-rule="nonzero" fill="rgb(0%, 0%, 0%)" fill-opacity="1" d="M 50.335938 50 C 50.335938 50.449219 49.664062 50.449219 49.664062 50 C 49.664062 49.550781 50.335938 49.550781 50.335938 50 "/>
<path fill-rule="nonzero" fill="rgb(0%, 0%, 0%)" fill-opacity="1" d="M 77.949219 32.855469 C 77.949219 33.304688 77.273438 33.304688 77.273438 32.855469 C 77.273438 32.40625 77.949219 32.40625 77.949219 32.855469 "/>
<path fill-rule="nonzero" fill="rgb(0%, 0%, 0%)" fill-opacity="1" d="M 39.144531 77.257812 C 39.144531 77.707031 38.46875 77.707031 38.46875 77.257812 C 38.46875 76.808594 39.144531 76.808594 39.144531 77.257812 "/>
<path fill="none" stroke-width="0.225" stroke-linecap="butt" stroke-linejoin="miter" stroke="rgb(100%, 0%, 0%)" stroke-opacity="1" stroke-miterlimit="10" d="M 77.609375 32.855469 L 38.808594 77.257812 "/>
<path fill-rule="nonzero" fill="rgb(0%, 0%, 0%)" fill-opacity="1" d="M 46.511719 38.390625 C 46.511719 38.839844 45.835938 38.839844 45.835938 38.390625 C 45.835938 37.9375 46.511719 37.9375 46.511719 38.390625 "/>
<path fill-rule="nonzero" fill="rgb(0%, 0%, 0%)" fill-opacity="1" d="M 54.480469 35.761719 C 54.480469 36.210938 53.804688 36.210938 53.804688 35.761719 C 53.804688 35.308594 54.480469 35.308594 54.480469 35.761719 "/>
<path fill="none" stroke-width="0.225" stroke-linecap="butt" stroke-linejoin="miter" stroke="rgb(100%, 0%, 0%)" stroke-opacity="1" stroke-miterlimit="10" d="M 46.171875 38.390625 L 54.144531 35.761719 "/>
<path fill-rule="nonzero" fill="rgb(0%, 0%, 0%)" fill-opacity="1" d="M 66.320312 89.398438 C 66.320312 89.847656 65.648438 89.847656 65.648438 89.398438 C 65.648438 88.945312 66.320312 88.945312 66.320312 89.398438 "/>
<path fill-rule="nonzero" fill="rgb(0%, 0%, 0%)" fill-opacity="1" d="M 34.941406 26.492188 C 34.941406 26.945312 34.265625 26.945312 34.265625 26.492188 C 34.265625 26.042969 34.941406 26.042969 34.941406 26.492188 "/>
<path fill="none" stroke-width="0.225" stroke-linecap="butt" stroke-linejoin="miter" stroke="rgb(100%, 0%, 0%)" stroke-opacity="1" stroke-miterlimit="10" d="M 65.984375 89.398438 L 34.605469 26.492188 "/>
<path fill-rule="nonzero" fill="rgb(0%, 0%, 0%)" fill-opacity="1" d="M 30.710938 90.046875 C 30.710938 90.496094 30.039062 90.496094 30.039062 90.046875 C 30.039062 89.597656 30.710938 89.597656 30.710938 90.046875 "/>
<path fill-rule="nonzero" fill="rgb(0%, 0%, 0%)" fill-opacity="1" d="M 22.71875 33.609375 C 22.71875 34.058594 22.042969 34.058594 22.042969 33.609375 C 22.042969 33.160156 22.71875 33.160156 22.71875 33.609375 "/>
<path fill="none" stroke-width="0.225" stroke-linecap="butt" stroke-linejoin="miter" stroke="rgb(100%, 0%, 0%)" stroke-opacity="1" stroke-miterlimit="10" d="M 30.375 90.046875 L 22.378906 33.609375 "/>
<path fill-rule="nonzero" fill="rgb(0%, 0%, 0%)" fill-opacity="1" d="M 39.828125 83.21875 C 39.828125 83.671875 39.152344 83.671875 39.152344 83.21875 C 39.152344 82.769531 39.828125 82.769531 39.828125 83.21875 "/>
<path fill-rule="nonzero" fill="rgb(0%, 0%, 0%)" fill-opacity="1" d="M 19.878906 74.949219 C 19.878906 75.398438 19.203125 75.398438 19.203125 74.949219 C 19.203125 74.496094 19.878906 74.496094 19.878906 74.949219 "/>
<path fill="none" stroke-width="0.225" stroke-linecap="butt" stroke-linejoin="miter" stroke="rgb(100%, 0%, 0%)" stroke-opacity="1" stroke-miterlimit="10" d="M 39.492188 83.21875 L 19.539062 74.949219 "/>
<path fill-rule="nonzero" fill="rgb(0%, 0%, 0%)" fill-opacity="1" d="M 45.863281 24.359375 C 45.863281 24.808594 45.1875 24.808594 45.1875 24.359375 C 45.1875 23.90625 45.863281 23.90625 45.863281 24.359375 "/>
<path fill-rule="nonzero" fill="rgb(0%, 0%, 0%)" fill-opacity="1" d="M 75.585938 53.804688 C 75.585938 54.257812 74.910156 54.257812 74.910156 53.804688 C 74.910156 53.355469 75.585938 53.355469 75.585938 53.804688 "/>
<path fill="none" stroke-width="0.225" stroke-linecap="butt" stroke-linejoin="miter" stroke="rgb(100%, 0%, 0%)" stroke-opacity="1" stroke-miterlimit="10" d="M 45.523438 24.359375 L 75.246094 53.804688 "/>
<path fill-rule="nonzero" fill="rgb(0%, 0%, 0%)" fill-opacity="1" d="M 90.609375 49.417969 C 90.609375 49.867188 89.933594 49.867188 89.933594 49.417969 C 89.933594 48.96875 90.609375 48.96875 90.609375 49.417969 "/>
<path fill-rule="nonzero" fill="rgb(0%, 0%, 0%)" fill-opacity="1" d="M 40.398438 65.976562 C 40.398438 66.429688 39.726562 66.429688 39.726562 65.976562 C 39.726562 65.527344 40.398438 65.527344 40.398438 65.976562 "/>
<path fill="none" stroke-width="0.225" stroke-linecap="butt" stroke-linejoin="miter" stroke="rgb(100%, 0%, 0%)" stroke-opacity="1" stroke-miterlimit="10" d="M 90.269531 49.417969 L 40.0625 65.976562 "/>
<path fill-rule="nonzero" fill="rgb(0%, 0%, 0%)" fill-opacity="1" d="M 9.792969 34.460938 C 9.792969 34.910156 9.117188 34.910156 9.117188 34.460938 C 9.117188 34.011719 9.792969 34.011719 9.792969 34.460938 "/>
<path fill-rule="nonzero" fill="rgb(0%, 0%, 0%)" fill-opacity="1" d="M 29.816406 24.492188 C 29.816406 24.941406 29.140625 24.941406 29.140625 24.492188 C 29.140625 24.042969 29.816406 24.042969 29.816406 24.492188 "/>
<path fill="none" stroke-width="0.225" stroke-linecap="butt" stroke-linejoin="miter" stroke="rgb(100%, 0%, 0%)" stroke-opacity="1" stroke-miterlimit="10" d="M 9.453125 34.460938 L 29.476562 24.492188 "/>
<path fill-rule="nonzero" fill="rgb(0%, 0%, 0%)" fill-opacity="1" d="M 25.171875 80.300781 C 25.171875 80.75 24.496094 80.75 24.496094 80.300781 C 24.496094 79.851562 25.171875 79.851562 25.171875 80.300781 "/>
<path fill-rule="nonzero" fill="rgb(0%, 0%, 0%)" fill-opacity="1" d="M 67.21875 16.832031 C 67.21875 17.28125 66.542969 17.28125 66.542969 16.832031 C 66.542969 16.382812 67.21875 16.382812 67.21875 16.832031 "/>
<path fill="none" stroke-width="0.225" stroke-linecap="butt" stroke-linejoin="miter" stroke="rgb(100%, 0%, 0%)" stroke-opacity="1" stroke-miterlimit="10" d="M 24.832031 80.300781 L 66.878906 16.832031 "/>
<path fill-rule="nonzero" fill="rgb(0%, 0%, 0%)" fill-opacity="1" d="M 68.707031 25.707031 C 68.707031 26.15625 68.035156 26.15625 68.035156 25.707031 C 68.035156 25.257812 68.707031 25.257812 68.707031 25.707031 "/>
<path fill-rule="nonzero" fill="rgb(0%, 0%, 0%)" fill-opacity="1" d="M 34.492188 14.660156 C 34.492188 15.113281 33.820312 15.113281 33.820312 14.660156 C 33.820312 14.210938 34.492188 14.210938 34.492188 14.660156 "/>
<path fill="none" stroke-width="0.225" stroke-linecap="butt" stroke-linejoin="miter" stroke="rgb(100%, 0%, 0%)" stroke-opacity="1" stroke-miterlimit="10" d="M 68.371094 25.707031 L 34.15625 14.660156 "/>
</svg>
