<?xml version="1.0" encoding="UTF-8"?>
<svg xmlns="http://www.w3.org/2000/svg" xmlns:xlink="http://www.w3.org/1999/xlink" width="100" height="100" viewBox="0 0 100 100">
<rect x="-10" y="-10" width="120" height="120" fill="rgb(100%, 100%, 100%)" fill-opacity="1"/>
<path fill="none" stroke-width="0.2" stroke-linecap="butt" stroke-linejoin="miter" stroke="rgb(0%, 0%, 0%)" stroke-opacity="1" stroke-miterlimit="10" d="M 95 50 C 95 74.851562 74.851562 95 50 95 C 25.148438 95 5 74.851562 5 50 C 5 25.148438 25.148438 5 50 5 C 74.851562 5 95 25.148438 95 50 "/>
<path fill-rule="nonzero" fill="rgb(0%, 0%, 0%)" fill-opacity="1" d="M 50.226562 50 C 50.226562 50.300781 49.773438 50.300781 49.773438 50 C 49.773438 49.699219 50.226562 49.699219 50.226562 50 "/>
<path fill-rule="nonzero" fill="rgb(100%, 0%, 0%)" fill-opacity="1" d="M 54.726562 45.5 C 54.726562 45.800781 54.273438 45.800781 54.273438 45.5 C 54.273438 45.199219 54.726562 45.199219 54.726562 45.5 "/>
<path fill-rule="nonzero" fill="rgb(100%, 0%, 0%)" fill-opacity="1" d="M 59.226562 36.5 C 59.226562 36.800781 58.773438 36.800781 58.773438 36.5 C 58.773438 36.199219 59.226562 36.199219 59.226562 36.5 "/>
<path fill-rule="nonzero" fill="rgb(0%, 100%, 0%)" fill-opacity="1" d="M 59.226562 36.5 C 59.226562 36.800781 58.773438 36.800781 58.773438 36.5 C 58.773438 36.199219 59.226562 36.199219 59.226562 36.5 "/>
<path fill="none" stroke-width="0.2" stroke-linecap="butt" stroke-linejoin="miter" stroke="rgb(0%, 0%, 0%)" stroke-opacity="1" stroke-miterlimit="10" d="M 54.5 45.5 L -163.75 470.75 "/>
<path fill-rule="nonzero" fill="rgb(0%, 0%, 0%)" fill-opacity="1" d="M 54.726562 72.5 C 54.726562 72.800781 54.273438 72.800781 54.273438 72.5 C 54.273438 72.199219 54.726562 72.199219 54.726562 72.5 "/>
</svg>
