<?xml version="1.0" encoding="UTF-8"?>
<svg xmlns="http://www.w3.org/2000/svg" xmlns:xlink="http://www.w3.org/1999/xlink" width="100" height="100" viewBox="0 0 100 100">
<rect x="-10" y="-10" width="120" height="120" fill="rgb(100%, 100%, 100%)" fill-opacity="1"/>
<path fill="none" stroke-width="0.05" stroke-linecap="butt" stroke-linejoin="miter" stroke="rgb(0%, 0%, 0%)" stroke-opacity="1" stroke-miterlimit="10" d="M 95 50 C 95 74.851562 74.851562 95 50 95 C 25.148438 95 5 74.851562 5 50 C 5 25.148438 25.148438 5 50 5 C 74.851562 5 95 25.148438 95 50 "/>
<path fill-rule="nonzero" fill="rgb(0%, 0%, 0%)" fill-opacity="1" d="M 50.226562 50 C 50.226562 50.300781 49.773438 50.300781 49.773438 50 C 49.773438 49.699219 50.226562 49.699219 50.226562 50 "/>
<path fill-rule="nonzero" fill="rgb(100%, 0%, 0%)" fill-opacity="1" d="M 90.726562 45.5 C 90.726562 45.800781 90.273438 45.800781 90.273438 45.5 C 90.273438 45.199219 90.726562 45.199219 90.726562 45.5 "/>
<path fill-rule="nonzero" fill="rgb(0%, 0%, 0%)" fill-opacity="1" d="M 92.351562 45.46875 C 92.351562 45.765625 91.898438 45.765625 91.898438 45.46875 C 91.898438 45.167969 92.351562 45.167969 92.351562 45.46875 "/>
<path fill-rule="nonzero" fill="rgb(0%, 0%, 0%)" fill-opacity="1" d="M 92.253906 44.917969 C 92.253906 45.21875 91.804688 45.21875 91.804688 44.917969 C 91.804688 44.617188 92.253906 44.617188 92.253906 44.917969 "/>
<path fill-rule="nonzero" fill="rgb(0%, 0%, 0%)" fill-opacity="1" d="M 92.003906 44.398438 C 92.003906 44.695312 91.554688 44.695312 91.554688 44.398438 C 91.554688 44.097656 92.003906 44.097656 92.003906 44.398438 "/>
<path fill-rule="nonzero" fill="rgb(0%, 0%, 0%)" fill-opacity="1" d="M 91.578125 43.929688 C 91.578125 44.230469 91.128906 44.230469 91.128906 43.929688 C 91.128906 43.628906 91.578125 43.628906 91.578125 43.929688 "/>
<path fill-rule="nonzero" fill="rgb(0%, 0%, 0%)" fill-opacity="1" d="M 90.945312 43.578125 C 90.945312 43.878906 90.492188 43.878906 90.492188 43.578125 C 90.492188 43.277344 90.945312 43.277344 90.945312 43.578125 "/>
<path fill-rule="nonzero" fill="rgb(0%, 0%, 0%)" fill-opacity="1" d="M 90.089844 43.472656 C 90.089844 43.773438 89.636719 43.773438 89.636719 43.472656 C 89.636719 43.171875 90.089844 43.171875 90.089844 43.472656 "/>
<path fill-rule="nonzero" fill="rgb(0%, 0%, 0%)" fill-opacity="1" d="M 89.105469 43.816406 C 89.105469 44.117188 88.65625 44.117188 88.65625 43.816406 C 88.65625 43.515625 89.105469 43.515625 89.105469 43.816406 "/>
<path fill-rule="nonzero" fill="rgb(0%, 0%, 0%)" fill-opacity="1" d="M 88.332031 44.765625 C 88.332031 45.066406 87.882812 45.066406 87.882812 44.765625 C 87.882812 44.464844 88.332031 44.464844 88.332031 44.765625 "/>
<path fill-rule="nonzero" fill="rgb(0%, 0%, 0%)" fill-opacity="1" d="M 88.25 46.097656 C 88.25 46.398438 87.800781 46.398438 87.800781 46.097656 C 87.800781 45.796875 88.25 45.796875 88.25 46.097656 "/>
<path fill-rule="nonzero" fill="rgb(0%, 0%, 0%)" fill-opacity="1" d="M 88.964844 47.183594 C 88.964844 47.484375 88.515625 47.484375 88.515625 47.183594 C 88.515625 46.882812 88.964844 46.882812 88.964844 47.183594 "/>
<path fill-rule="nonzero" fill="rgb(0%, 0%, 0%)" fill-opacity="1" d="M 90.019531 47.625 C 90.019531 47.921875 89.570312 47.921875 89.570312 47.625 C 89.570312 47.324219 90.019531 47.324219 90.019531 47.625 "/>
<path fill-rule="nonzero" fill="rgb(0%, 0%, 0%)" fill-opacity="1" d="M 90.964844 47.515625 C 90.964844 47.816406 90.515625 47.816406 90.515625 47.515625 C 90.515625 47.214844 90.964844 47.214844 90.964844 47.515625 "/>
<path fill-rule="nonzero" fill="rgb(0%, 0%, 0%)" fill-opacity="1" d="M 91.648438 47.113281 C 91.648438 47.414062 91.199219 47.414062 91.199219 47.113281 C 91.199219 46.8125 91.648438 46.8125 91.648438 47.113281 "/>
<path fill-rule="nonzero" fill="rgb(0%, 0%, 0%)" fill-opacity="1" d="M 92.074219 46.589844 C 92.074219 46.890625 91.625 46.890625 91.625 46.589844 C 91.625 46.289062 92.074219 46.289062 92.074219 46.589844 "/>
<path fill-rule="nonzero" fill="rgb(0%, 0%, 0%)" fill-opacity="1" d="M 92.296875 46.03125 C 92.296875 46.328125 91.847656 46.328125 91.847656 46.03125 C 91.847656 45.730469 92.296875 45.730469 92.296875 46.03125 "/>
<path fill="none" stroke-width="0.05" stroke-linecap="butt" stroke-linejoin="miter" stroke="rgb(0%, 0%, 0%)" stroke-opacity="1" stroke-miterlimit="10" d="M 94.820312 11.25 C 94.820312 20.402344 87.402344 27.820312 78.25 27.820312 C 69.097656 27.820312 61.679688 20.402344 61.679688 11.25 C 61.679688 2.097656 69.097656 -5.320312 78.25 -5.320312 C 87.402344 -5.320312 94.820312 2.097656 94.820312 11.25 "/>
<path fill-rule="nonzero" fill="rgb(0%, 0%, 0%)" fill-opacity="1" d="M 82.273438 27.378906 C 82.273438 27.679688 81.824219 27.679688 81.824219 27.378906 C 81.824219 27.082031 82.273438 27.082031 82.273438 27.378906 "/>
<path fill-rule="nonzero" fill="rgb(0%, 0%, 0%)" fill-opacity="1" d="M 82.777344 27.253906 C 82.777344 27.554688 82.328125 27.554688 82.328125 27.253906 C 82.328125 26.953125 82.777344 26.953125 82.777344 27.253906 "/>
<path fill-rule="nonzero" fill="rgb(0%, 0%, 0%)" fill-opacity="1" d="M 83.238281 27.121094 C 83.238281 27.421875 82.785156 27.421875 82.785156 27.121094 C 82.785156 26.824219 83.238281 26.824219 83.238281 27.121094 "/>
<path fill-rule="nonzero" fill="rgb(0%, 0%, 0%)" fill-opacity="1" d="M 83.65625 26.992188 C 83.65625 27.292969 83.207031 27.292969 83.207031 26.992188 C 83.207031 26.691406 83.65625 26.691406 83.65625 26.992188 "/>
<path fill-rule="nonzero" fill="rgb(0%, 0%, 0%)" fill-opacity="1" d="M 84.035156 26.859375 C 84.035156 27.160156 83.585938 27.160156 83.585938 26.859375 C 83.585938 26.5625 84.035156 26.5625 84.035156 26.859375 "/>
<path fill-rule="nonzero" fill="rgb(0%, 0%, 0%)" fill-opacity="1" d="M 84.382812 26.734375 C 84.382812 27.035156 83.929688 27.035156 83.929688 26.734375 C 83.929688 26.433594 84.382812 26.433594 84.382812 26.734375 "/>
<path fill-rule="nonzero" fill="rgb(0%, 0%, 0%)" fill-opacity="1" d="M 84.695312 26.609375 C 84.695312 26.910156 84.246094 26.910156 84.246094 26.609375 C 84.246094 26.308594 84.695312 26.308594 84.695312 26.609375 "/>
<path fill-rule="nonzero" fill="rgb(0%, 0%, 0%)" fill-opacity="1" d="M 84.980469 26.492188 C 84.980469 26.792969 84.527344 26.792969 84.527344 26.492188 C 84.527344 26.191406 84.980469 26.191406 84.980469 26.492188 "/>
<path fill-rule="nonzero" fill="rgb(0%, 0%, 0%)" fill-opacity="1" d="M 85.238281 26.378906 C 85.238281 26.679688 84.785156 26.679688 84.785156 26.378906 C 84.785156 26.078125 85.238281 26.078125 85.238281 26.378906 "/>
<path fill-rule="nonzero" fill="rgb(0%, 0%, 0%)" fill-opacity="1" d="M 85.46875 26.273438 C 85.46875 26.574219 85.019531 26.574219 85.019531 26.273438 C 85.019531 25.972656 85.46875 25.972656 85.46875 26.273438 "/>
<path fill-rule="nonzero" fill="rgb(0%, 0%, 0%)" fill-opacity="1" d="M 85.679688 26.171875 C 85.679688 26.472656 85.230469 26.472656 85.230469 26.171875 C 85.230469 25.875 85.679688 25.875 85.679688 26.171875 "/>
<path fill-rule="nonzero" fill="rgb(0%, 0%, 0%)" fill-opacity="1" d="M 85.871094 26.078125 C 85.871094 26.378906 85.421875 26.378906 85.421875 26.078125 C 85.421875 25.78125 85.871094 25.78125 85.871094 26.078125 "/>
<path fill-rule="nonzero" fill="rgb(0%, 0%, 0%)" fill-opacity="1" d="M 86.042969 25.992188 C 86.042969 26.292969 85.59375 26.292969 85.59375 25.992188 C 85.59375 25.691406 86.042969 25.691406 86.042969 25.992188 "/>
<path fill-rule="nonzero" fill="rgb(0%, 0%, 0%)" fill-opacity="1" d="M 86.199219 25.910156 C 86.199219 26.210938 85.75 26.210938 85.75 25.910156 C 85.75 25.613281 86.199219 25.613281 86.199219 25.910156 "/>
</svg>
